<?xml version="1.0" encoding="utf-8"?>
<!-- Generator: Adobe Illustrator 17.0.0, SVG Export Plug-In . SVG Version: 6.00 Build 0)  -->
<!DOCTYPE svg PUBLIC "-//W3C//DTD SVG 1.1//EN" "http://www.w3.org/Graphics/SVG/1.1/DTD/svg11.dtd">
<svg version="1.1" id="Слой_1" xmlns="http://www.w3.org/2000/svg" xmlns:xlink="http://www.w3.org/1999/xlink" x="0px" y="0px"
	 width="70px" height="63.373px" viewBox="0 0 70 63.373" enable-background="new 0 0 70 63.373" xml:space="preserve">
<g>
	<path fill="#FFFFFF" d="M13.621,26.656c1.862-7.441,8.404-12.864,15.891-13.192v-3.078c-2.197,0.08-4.347,0.523-6.402,1.32
		c-2.182,0.847-4.196,2.068-5.987,3.63c-3.397,2.963-5.742,6.958-6.66,11.32H13.621z"/>
	<path fill="#FFFFFF" d="M22.246,26.656c1.492-2.879,4.257-4.8,7.265-5.066v-2.776c-2.314,0.148-4.516,1.009-6.405,2.51
		c-1.747,1.389-3.105,3.258-3.89,5.332H22.246z"/>
	<path fill="#FFFFFF" d="M0.337,26.656h5.252C7.578,14.849,17.702,5.944,29.511,5.594V0.403c-7.186,0.174-14.071,2.95-19.455,7.858
		C4.748,13.101,1.315,19.609,0.337,26.656z"/>
	<g>
		<polygon fill="#FFFFFF" points="52.27,7.907 53.971,5.251 33.239,0 33.239,19.995 43.734,6.062 		"/>
	</g>
	<g>
		<polygon fill="#FFFFFF" points="45.981,9.211 35.126,24.035 51.998,13.74 60.803,14.98 63.315,12.262 		"/>
	</g>
	<g>
		<polygon fill="#FFFFFF" points="52.994,17.117 37.017,27.867 61.494,27.867 70,20.172 		"/>
	</g>
	<g>
		<circle fill="#FFFFFF" cx="30.269" cy="30.071" r="4.219"/>
	</g>
	<path fill="#FFFFFF" d="M60.392,31.646L58.3,31.635l-15.859-0.085l-1.405-0.008l-2.612-0.014l-0.189-0.001l-0.435-0.002
		c-0.497,3.785-3.719,6.663-7.601,6.663c-3.927,0-7.154-2.914-7.612-6.745l-0.494-0.003l-0.111-0.001l-2.634-0.014l-1.384-0.007
		L2.276,31.334l-2.264-0.012l-0.009,1.617l0,0.012l-0.001,0.012l0,0.005c-0.001,0.017-0.002,0.033-0.002,0.05l0,0.012
		c0.001,0.021,0.001,0.041,0.001,0.062L0,33.497l0.064,1.542c0.467,7.674,3.812,14.813,9.42,20.104
		c1.008,0.95,2.096,1.843,3.234,2.653c4.443,3.16,9.666,5.054,15.105,5.477c0.841,0.065,1.542,0.097,2.207,0.101
		c0.041,0,0.082,0,0.123,0c0.604,0,1.242-0.023,2.006-0.072c5.472-0.352,10.743-2.191,15.243-5.32
		c1.147-0.797,2.245-1.678,3.262-2.618c5.665-5.23,9.087-12.334,9.635-20.004l0.079-1.275l0.004-0.668
		c0-0.022,0.001-0.042,0.002-0.063l0.001-0.013c0-0.013-0.001-0.03-0.001-0.046l0-0.005l0-0.012l0-0.012L60.392,31.646z
		 M7.387,34.44l10.331,0.056l0.748,0.004l-0.079,0.743c-0.214,2.021-0.572,4.06-1.062,6.061l-0.202,0.826l-0.759-0.383
		c-3.126-1.576-6.289-3.629-9.401-6.101L5.432,34.43L7.387,34.44z M13.229,51.563l-0.627-0.621
		c-3.048-3.019-5.278-6.792-6.449-10.913l-0.541-1.903L7.205,39.3c2.819,2.079,5.702,3.838,8.569,5.23l0.544,0.264l-0.203,0.57
		c-0.706,1.988-1.531,3.815-2.451,5.431L13.229,51.563z M28.551,48.916l-0.058,8.476l-0.005,0.74l-0.736-0.071
		c-4.22-0.409-8.291-1.901-11.774-4.313l-0.52-0.36l0.324-0.543c1.102-1.843,2.076-3.956,2.896-6.279l0.229-0.649l0.645,0.241
		c2.822,1.053,5.649,1.754,8.403,2.083l0.6,0.072L28.551,48.916z M28.604,41.133l-0.025,3.637l-0.005,0.769l-0.762-0.103
		c-2.482-0.336-5.022-0.995-7.55-1.958l-0.56-0.214l0.145-0.582c0.456-1.827,0.81-3.74,1.055-5.684l0.206-1.639l1.003,1.313
		c1.484,1.943,3.601,3.291,5.96,3.795l0.539,0.115L28.604,41.133z M31.657,45.031l0.027-3.882l0.004-0.549l0.538-0.109
		c2.373-0.481,4.509-1.816,6.015-3.757l1.016-1.31l0.19,1.647c0.261,2.264,0.672,4.484,1.221,6.598l0.164,0.631l-0.624,0.187
		c-1.842,0.552-3.724,0.923-5.594,1.102c-0.715,0.069-1.456,0.109-2.267,0.123l-0.693,0.012L31.657,45.031z M44.186,53.899
		c-3.526,2.386-7.635,3.835-11.882,4.19l-0.738,0.062l0.005-0.74l0.057-8.278l0.005-0.662l0.662-0.01
		c0.975-0.015,1.833-0.059,2.622-0.136c2.047-0.199,4.105-0.604,6.118-1.203l0.609-0.181l0.219,0.597
		c0.736,2.008,1.586,3.845,2.528,5.46l0.319,0.546L44.186,53.899z M53.565,42.059c-1.29,3.396-3.355,6.533-5.973,9.071l-0.633,0.614
		l-0.428-0.771c-0.714-1.286-1.388-2.766-2.002-4.397l-0.227-0.603l0.591-0.256c2.617-1.135,5.187-2.629,7.639-4.442l1.852-1.369
		L53.565,42.059z M54.666,35.862c-3.264,3.056-6.79,5.454-10.482,7.126l-0.731,0.331l-0.203-0.776
		c-0.618-2.366-1.047-4.779-1.275-7.173l-0.071-0.744l0.748,0.004l11.555,0.062l1.698,0.009L54.666,35.862z"/>
</g>
</svg>
