<?xml version="1.0" encoding="utf-8"?>
<!-- Generator: Adobe Illustrator 17.0.0, SVG Export Plug-In . SVG Version: 6.00 Build 0)  -->
<!DOCTYPE svg PUBLIC "-//W3C//DTD SVG 1.1//EN" "http://www.w3.org/Graphics/SVG/1.1/DTD/svg11.dtd">
<svg version="1.1" id="Слой_1" xmlns="http://www.w3.org/2000/svg" xmlns:xlink="http://www.w3.org/1999/xlink" x="0px" y="0px"
	 width="438.709px" height="77px" viewBox="0 0 438.709 77" enable-background="new 0 0 438.709 77" xml:space="preserve">
<g>
	<path fill="#0BC0FF" d="M17.959,32.388c2.263-9.041,10.211-15.63,19.308-16.029v-3.739c-2.669,0.097-5.282,0.635-7.778,1.604
		c-2.651,1.029-5.099,2.513-7.274,4.411c-4.127,3.6-6.976,8.454-8.093,13.754H17.959z"/>
	<path fill="#0BC0FF" d="M28.44,32.388c1.813-3.498,5.173-5.832,8.828-6.155v-3.373c-2.812,0.18-5.487,1.226-7.782,3.05
		c-2.122,1.687-3.773,3.958-4.726,6.478H28.44z"/>
	<path fill="#0BC0FF" d="M1.82,32.388h6.381C10.618,18.042,22.918,7.222,37.267,6.797V0.489c-8.731,0.212-17.096,3.584-23.638,9.548
		C7.179,15.918,3.008,23.825,1.82,32.388z"/>
	<g>
		<polygon fill="#005A80" points="64.919,9.608 66.987,6.381 41.796,0 41.796,24.295 54.548,7.366 		"/>
	</g>
	<g>
		<polygon fill="#005A80" points="57.278,11.191 44.09,29.204 64.589,16.695 75.287,18.201 78.339,14.899 		"/>
	</g>
	<g>
		<polygon fill="#005A80" points="65.799,20.798 46.387,33.859 76.127,33.859 86.462,24.509 		"/>
	</g>
	<g>
		<circle fill="#C40000" cx="38.187" cy="36.537" r="5.126"/>
	</g>
	<path fill="#005A80" d="M74.788,38.451l-2.543-0.014l-19.269-0.104l-1.708-0.009l-3.174-0.017l-0.23-0.001l-0.528-0.003
		c-0.604,4.599-4.519,8.096-9.236,8.096c-4.771,0-8.692-3.54-9.249-8.195l-0.6-0.003L28.117,38.2l-3.2-0.017l-1.682-0.009
		l-19.06-0.103l-2.751-0.015l-0.011,1.965l0,0.015l-0.001,0.015l0,0.006c-0.001,0.02-0.002,0.04-0.002,0.061l0.001,0.014
		c0.001,0.025,0.002,0.05,0.001,0.076L1.41,40.7l0.078,1.873c0.567,9.324,4.631,17.998,11.445,24.426
		c1.224,1.155,2.546,2.239,3.929,3.223c5.398,3.84,11.745,6.141,18.354,6.654c1.022,0.079,1.874,0.118,2.682,0.123
		c0.05,0,0.099,0,0.149,0c0.734,0,1.508-0.028,2.437-0.087c6.649-0.428,13.053-2.663,18.521-6.464
		c1.394-0.969,2.727-2.039,3.964-3.181c6.883-6.355,11.041-14.987,11.707-24.306l0.096-1.549l0.004-0.812
		c0-0.027,0.001-0.052,0.002-0.076l0.001-0.016c0-0.016-0.001-0.036-0.001-0.056l0-0.006l0-0.015l0-0.015L74.788,38.451z
		 M10.386,41.846l12.552,0.067l0.908,0.005l-0.096,0.903c-0.26,2.455-0.694,4.933-1.29,7.364l-0.246,1.003l-0.922-0.465
		c-3.799-1.915-7.642-4.409-11.422-7.413l-1.86-1.478L10.386,41.846z M17.483,62.65l-0.762-0.754
		c-3.703-3.668-6.412-8.253-7.835-13.259l-0.657-2.313l1.935,1.427c3.425,2.526,6.929,4.664,10.412,6.355l0.661,0.321l-0.246,0.693
		c-0.858,2.415-1.86,4.636-2.978,6.599L17.483,62.65z M36.1,59.434l-0.071,10.299l-0.006,0.899l-0.895-0.087
		c-5.127-0.498-10.073-2.309-14.305-5.24l-0.632-0.437l0.394-0.66c1.339-2.24,2.522-4.807,3.518-7.63l0.278-0.789l0.784,0.293
		c3.429,1.28,6.864,2.131,10.21,2.53l0.729,0.087L36.1,59.434z M36.165,49.977l-0.03,4.419l-0.006,0.934l-0.925-0.125
		c-3.015-0.409-6.102-1.209-9.174-2.379l-0.681-0.259l0.176-0.707c0.554-2.22,0.985-4.544,1.281-6.906l0.25-1.991l1.218,1.595
		c1.803,2.361,4.375,3.999,7.241,4.611l0.655,0.14L36.165,49.977z M39.874,54.713l0.032-4.717l0.005-0.667l0.654-0.133
		c2.883-0.585,5.478-2.206,7.308-4.565l1.234-1.592l0.231,2.001c0.317,2.751,0.816,5.448,1.483,8.017l0.199,0.766l-0.758,0.227
		c-2.237,0.671-4.524,1.121-6.797,1.339c-0.868,0.083-1.77,0.132-2.755,0.149l-0.842,0.015L39.874,54.713z M55.098,65.489
		c-4.284,2.899-9.276,4.659-14.437,5.091l-0.896,0.075l0.006-0.899l0.069-10.058l0.006-0.804l0.804-0.012
		c1.185-0.018,2.227-0.072,3.186-0.165c2.487-0.242,4.988-0.734,7.434-1.462l0.74-0.22l0.266,0.725
		c0.894,2.439,1.927,4.672,3.072,6.634l0.387,0.664L55.098,65.489z M66.493,51.103c-1.567,4.126-4.077,7.938-7.258,11.022
		l-0.77,0.746l-0.52-0.937c-0.868-1.563-1.686-3.36-2.432-5.342l-0.276-0.732l0.718-0.311c3.18-1.379,6.303-3.194,9.282-5.397
		l2.25-1.664L66.493,51.103z M67.831,43.573c-3.966,3.713-8.251,6.627-12.736,8.659l-0.888,0.402l-0.246-0.943
		c-0.751-2.875-1.272-5.807-1.549-8.715l-0.086-0.904l0.908,0.005l14.039,0.075l2.063,0.011L67.831,43.573z"/>
</g>
<g>
	<path d="M107.052,22.355h1.486v4.042h-1.104c-0.194-1.25-0.417-2.063-0.668-2.436c-0.251-0.374-0.618-0.561-1.1-0.561h-8.209
		v-0.548c0.398-0.105,0.649-0.249,0.751-0.432c0.102-0.183,0.153-0.556,0.153-1.121v-7.139c0-0.564-0.051-0.938-0.153-1.121
		c-0.103-0.183-0.353-0.321-0.751-0.415v-0.548h4.449v0.548c-0.398,0.094-0.645,0.223-0.739,0.386
		c-0.094,0.164-0.141,0.547-0.141,1.15v8.185h3.428v-8.185c0-0.548-0.051-0.917-0.153-1.108c-0.103-0.191-0.35-0.333-0.743-0.428
		v-0.548h4.383v0.548c-0.382,0.094-0.625,0.234-0.73,0.419c-0.105,0.186-0.158,0.558-0.158,1.117V22.355z"/>
	<path d="M117.992,12.071v2.64h-1.137c-0.183-0.526-0.337-0.881-0.465-1.067c-0.127-0.185-0.279-0.332-0.457-0.439
		c-0.177-0.108-0.479-0.162-0.905-0.162h-1.81v3.984h1.096c0.244,0,0.435-0.035,0.573-0.104c0.138-0.069,0.253-0.184,0.345-0.345
		c0.091-0.161,0.178-0.41,0.261-0.747h0.938v3.37h-0.938c-0.078-0.321-0.163-0.566-0.257-0.734c-0.094-0.169-0.206-0.29-0.336-0.361
		c-0.13-0.072-0.325-0.108-0.585-0.108h-1.096v4.433h1.801c0.194,0,0.357-0.012,0.49-0.038c0.133-0.024,0.252-0.067,0.357-0.128
		s0.206-0.144,0.303-0.249c0.097-0.105,0.183-0.219,0.258-0.34c0.074-0.122,0.153-0.282,0.236-0.481s0.174-0.473,0.274-0.822h1.137
		l-0.158,3.03h-8.16v-0.548c0.205-0.055,0.367-0.115,0.485-0.179c0.119-0.063,0.208-0.152,0.266-0.266
		c0.059-0.113,0.096-0.257,0.112-0.432c0.017-0.174,0.025-0.394,0.025-0.66v-7.155c0-0.26-0.007-0.479-0.021-0.656
		c-0.014-0.177-0.05-0.321-0.107-0.432c-0.059-0.111-0.147-0.201-0.266-0.27c-0.119-0.069-0.284-0.132-0.494-0.187v-0.548H117.992z"
		/>
	<path d="M129.364,21.318c0,0.426,0.018,0.718,0.054,0.875c0.036,0.158,0.109,0.29,0.22,0.395s0.313,0.194,0.606,0.266v0.548h-4.333
		v-0.548c0.321-0.083,0.528-0.166,0.623-0.249s0.161-0.201,0.199-0.353c0.039-0.152,0.058-0.464,0.058-0.934v-3.329h-3.752v3.329
		c0,0.194,0.005,0.374,0.017,0.54s0.033,0.302,0.066,0.407s0.082,0.194,0.145,0.266c0.064,0.072,0.151,0.134,0.262,0.187
		c0.111,0.052,0.246,0.098,0.407,0.137v0.548h-4.358v-0.548c0.205-0.055,0.367-0.115,0.485-0.179
		c0.119-0.063,0.208-0.152,0.266-0.266c0.059-0.113,0.096-0.257,0.112-0.432c0.017-0.174,0.025-0.394,0.025-0.66v-7.155
		c0-0.26-0.007-0.479-0.021-0.656c-0.014-0.177-0.05-0.321-0.107-0.432c-0.059-0.111-0.147-0.201-0.266-0.27
		c-0.119-0.069-0.284-0.132-0.494-0.187v-0.548h4.358v0.548c-0.293,0.083-0.494,0.174-0.602,0.274
		c-0.107,0.1-0.184,0.231-0.228,0.395c-0.044,0.163-0.066,0.458-0.066,0.884v2.772h3.752v-2.772c0-0.42-0.018-0.712-0.054-0.876
		c-0.036-0.163-0.107-0.296-0.216-0.398c-0.107-0.102-0.311-0.195-0.61-0.278v-0.548h4.333v0.548
		c-0.244,0.066-0.42,0.137-0.531,0.211c-0.111,0.075-0.189,0.17-0.237,0.287c-0.047,0.116-0.077,0.246-0.091,0.39
		c-0.014,0.144-0.021,0.365-0.021,0.664V21.318z"/>
	<path d="M134.195,23.401v-0.548c0.232-0.039,0.417-0.09,0.552-0.153c0.135-0.064,0.236-0.154,0.303-0.27s0.108-0.264,0.125-0.444
		c0.017-0.18,0.025-0.403,0.025-0.668v-8.276h-0.672c-0.332,0-0.586,0.039-0.764,0.116s-0.331,0.199-0.46,0.365
		c-0.13,0.166-0.242,0.389-0.336,0.668c-0.094,0.28-0.171,0.544-0.232,0.793h-1.137v-2.914h9.77v2.914h-1.137
		c-0.105-0.376-0.188-0.653-0.249-0.83s-0.129-0.328-0.203-0.452c-0.075-0.125-0.154-0.229-0.237-0.312s-0.171-0.149-0.266-0.199
		s-0.211-0.087-0.353-0.112c-0.141-0.024-0.325-0.037-0.552-0.037h-0.598v8.276c0,0.293,0.008,0.516,0.025,0.668
		c0.017,0.152,0.047,0.275,0.091,0.369s0.098,0.17,0.162,0.229c0.063,0.058,0.152,0.11,0.266,0.157
		c0.113,0.047,0.267,0.084,0.46,0.112v0.548H134.195z"/>
	<path d="M146.173,21.326c0,0.365,0.014,0.624,0.042,0.776c0.028,0.152,0.073,0.273,0.137,0.365
		c0.064,0.091,0.155,0.167,0.274,0.228c0.119,0.061,0.303,0.113,0.552,0.158v0.548h-4.466v-0.548
		c0.205-0.055,0.367-0.115,0.485-0.179c0.119-0.063,0.208-0.152,0.266-0.266c0.059-0.113,0.096-0.257,0.112-0.432
		c0.017-0.174,0.025-0.394,0.025-0.66v-7.155c0-0.26-0.007-0.479-0.021-0.656c-0.014-0.177-0.05-0.321-0.107-0.432
		c-0.059-0.111-0.147-0.201-0.266-0.27c-0.119-0.069-0.284-0.132-0.494-0.187v-0.548h4.823c1.4,0,2.449,0.25,3.146,0.751
		c0.697,0.5,1.046,1.271,1.046,2.312c0,0.736-0.163,1.375-0.49,1.917s-0.8,0.953-1.419,1.233c-0.62,0.279-1.395,0.419-2.324,0.419
		c-0.537,0-0.977-0.011-1.32-0.033V21.326z M146.173,17.732h0.714c0.553,0,0.993-0.079,1.32-0.237
		c0.327-0.157,0.568-0.408,0.727-0.751c0.157-0.343,0.236-0.805,0.236-1.386c0-0.576-0.079-1.034-0.236-1.374
		c-0.158-0.341-0.389-0.583-0.693-0.727s-0.694-0.216-1.17-0.216c-0.387,0-0.686,0.005-0.896,0.017V17.732z"/>
	<path d="M160.351,21.326c0,0.365,0.014,0.624,0.042,0.776c0.028,0.152,0.073,0.273,0.137,0.365
		c0.064,0.091,0.155,0.167,0.274,0.228c0.119,0.061,0.303,0.113,0.552,0.158v0.548h-4.466v-0.548
		c0.205-0.055,0.367-0.115,0.485-0.179c0.119-0.063,0.208-0.152,0.266-0.266c0.059-0.113,0.096-0.257,0.112-0.432
		c0.017-0.174,0.025-0.394,0.025-0.66v-7.155c0-0.26-0.007-0.479-0.021-0.656c-0.014-0.177-0.05-0.321-0.107-0.432
		c-0.059-0.111-0.147-0.201-0.266-0.27c-0.119-0.069-0.284-0.132-0.494-0.187v-0.548h4.823c1.4,0,2.449,0.25,3.146,0.751
		c0.697,0.5,1.046,1.271,1.046,2.312c0,0.736-0.163,1.375-0.49,1.917s-0.8,0.953-1.419,1.233c-0.62,0.279-1.395,0.419-2.324,0.419
		c-0.537,0-0.977-0.011-1.32-0.033V21.326z M160.351,17.732h0.714c0.553,0,0.993-0.079,1.32-0.237
		c0.327-0.157,0.568-0.408,0.727-0.751c0.157-0.343,0.236-0.805,0.236-1.386c0-0.576-0.079-1.034-0.236-1.374
		c-0.158-0.341-0.389-0.583-0.693-0.727s-0.694-0.216-1.17-0.216c-0.387,0-0.686,0.005-0.896,0.017V17.732z"/>
	<path d="M175.558,12.071v2.64h-1.137c-0.183-0.526-0.337-0.881-0.465-1.067c-0.127-0.185-0.279-0.332-0.457-0.439
		c-0.177-0.108-0.479-0.162-0.905-0.162h-1.81v3.984h1.096c0.244,0,0.435-0.035,0.573-0.104c0.138-0.069,0.253-0.184,0.345-0.345
		c0.091-0.161,0.178-0.41,0.261-0.747h0.938v3.37h-0.938c-0.078-0.321-0.163-0.566-0.257-0.734c-0.094-0.169-0.206-0.29-0.336-0.361
		c-0.13-0.072-0.325-0.108-0.585-0.108h-1.096v4.433h1.801c0.194,0,0.357-0.012,0.49-0.038c0.133-0.024,0.252-0.067,0.357-0.128
		s0.206-0.144,0.303-0.249c0.097-0.105,0.183-0.219,0.258-0.34c0.074-0.122,0.153-0.282,0.236-0.481s0.174-0.473,0.274-0.822h1.137
		l-0.158,3.03h-8.16v-0.548c0.205-0.055,0.367-0.115,0.485-0.179c0.119-0.063,0.208-0.152,0.266-0.266
		c0.059-0.113,0.096-0.257,0.112-0.432c0.017-0.174,0.025-0.394,0.025-0.66v-7.155c0-0.26-0.007-0.479-0.021-0.656
		c-0.014-0.177-0.05-0.321-0.107-0.432c-0.059-0.111-0.147-0.201-0.266-0.27c-0.119-0.069-0.284-0.132-0.494-0.187v-0.548H175.558z"
		/>
	<path d="M182.929,19.89h-3.544l-0.274,0.789c-0.078,0.221-0.141,0.436-0.191,0.644c-0.05,0.207-0.075,0.427-0.075,0.66
		c0,0.542,0.288,0.833,0.863,0.872v0.548h-3.544v-0.548c0.205-0.022,0.385-0.094,0.54-0.216s0.296-0.288,0.423-0.498
		s0.263-0.512,0.407-0.905l3.461-9.222h2.216l2.739,9.297c0.122,0.415,0.224,0.71,0.307,0.884c0.083,0.175,0.191,0.315,0.324,0.424
		c0.133,0.107,0.318,0.187,0.556,0.236v0.548h-4.582v-0.548c0.288-0.033,0.501-0.113,0.639-0.241s0.208-0.307,0.208-0.54
		c0-0.171-0.02-0.362-0.058-0.573s-0.103-0.476-0.191-0.797L182.929,19.89z M179.7,18.919h2.988l-1.328-4.673L179.7,18.919z"/>
	<path d="M198.618,23.401h-4.541v-0.548c0.47-0.111,0.755-0.274,0.855-0.49s0.149-0.609,0.149-1.179v-8.126h-1.834
		c-0.111,1.284-0.322,2.665-0.635,4.142c-0.313,1.478-0.657,2.721-1.033,3.731c-0.376,1.01-0.775,1.696-1.195,2.059
		c-0.42,0.363-0.958,0.544-1.61,0.544c-0.503,0-0.963-0.066-1.378-0.199v-2.009h1.063c0.078,0.487,0.288,0.73,0.631,0.73
		c0.271,0,0.528-0.12,0.772-0.361c0.244-0.24,0.518-0.821,0.822-1.743c0.304-0.921,0.589-2.042,0.855-3.361
		c0.266-1.32,0.398-2.279,0.398-2.876c0-0.41-0.062-0.685-0.187-0.826c-0.124-0.142-0.341-0.231-0.651-0.27v-0.548h7.521v0.548
		c-0.393,0.1-0.651,0.227-0.776,0.382c-0.124,0.155-0.187,0.581-0.187,1.278v6.906c0,0.659,0.058,1.076,0.174,1.253
		s0.379,0.315,0.789,0.415V23.401z"/>
	<path d="M210.172,21.318c0,0.559,0.048,0.931,0.145,1.117c0.097,0.185,0.342,0.325,0.735,0.419v0.548h-4.333v-0.548
		c0.398-0.094,0.645-0.223,0.739-0.386c0.094-0.164,0.141-0.547,0.141-1.15v-3.246c0-0.979,0.025-1.724,0.075-2.233h-0.05
		l-3.943,5.479c0,0.548,0.051,0.917,0.154,1.108c0.102,0.191,0.35,0.333,0.743,0.428v0.548h-4.358v-0.548
		c0.382-0.094,0.625-0.234,0.73-0.419c0.105-0.186,0.158-0.558,0.158-1.117v-7.155c0-0.57-0.05-0.943-0.149-1.121
		s-0.346-0.318-0.739-0.423v-0.548h4.358v0.548c-0.393,0.111-0.641,0.257-0.743,0.44c-0.103,0.183-0.154,0.553-0.154,1.112v3.652
		c0,0.692-0.02,1.237-0.058,1.635h0.05l3.926-5.487c0-0.465-0.05-0.782-0.149-0.95c-0.1-0.169-0.343-0.303-0.73-0.403v-0.548h4.333
		v0.548c-0.387,0.105-0.631,0.248-0.73,0.427c-0.1,0.18-0.149,0.555-0.149,1.125V21.318z"/>
	<path d="M217.626,17.483c1.765,0.503,2.648,1.431,2.648,2.781c0,1.046-0.38,1.853-1.142,2.42c-0.761,0.567-1.894,0.851-3.399,0.851
		c-0.941,0-1.998-0.163-3.171-0.49v-2.474h1.154c0.254,0.825,0.537,1.367,0.847,1.627s0.744,0.39,1.303,0.39
		c0.564,0,1.003-0.195,1.316-0.585c0.313-0.391,0.469-0.959,0.469-1.706c0-0.802-0.171-1.358-0.515-1.668s-0.899-0.465-1.668-0.465
		h-1.378V16.86h1.32c0.686,0,1.202-0.144,1.548-0.432c0.346-0.288,0.519-0.863,0.519-1.727c0-0.581-0.145-1.031-0.436-1.349
		c-0.29-0.318-0.663-0.478-1.116-0.478c-0.553,0-0.982,0.137-1.287,0.411c-0.304,0.273-0.586,0.771-0.847,1.49h-1.146v-2.349
		c1.35-0.332,2.532-0.498,3.544-0.498c2.595,0,3.893,0.888,3.893,2.665c0,1.223-0.819,2.15-2.457,2.781V17.483z"/>
	<path d="M227.72,19.89h-3.544l-0.274,0.789c-0.078,0.221-0.141,0.436-0.191,0.644c-0.05,0.207-0.075,0.427-0.075,0.66
		c0,0.542,0.288,0.833,0.863,0.872v0.548h-3.544v-0.548c0.205-0.022,0.385-0.094,0.54-0.216s0.296-0.288,0.423-0.498
		s0.263-0.512,0.407-0.905l3.461-9.222h2.216l2.739,9.297c0.122,0.415,0.224,0.71,0.307,0.884c0.083,0.175,0.191,0.315,0.324,0.424
		c0.133,0.107,0.318,0.187,0.556,0.236v0.548h-4.582v-0.548c0.288-0.033,0.501-0.113,0.639-0.241s0.208-0.307,0.208-0.54
		c0-0.171-0.02-0.362-0.058-0.573s-0.103-0.476-0.191-0.797L227.72,19.89z M224.491,18.919h2.988l-1.328-4.673L224.491,18.919z"/>
	<path d="M242.438,22.355h1.486v4.042h-1.104c-0.194-1.25-0.417-2.063-0.668-2.436c-0.251-0.374-0.618-0.561-1.1-0.561h-8.209
		v-0.548c0.398-0.105,0.649-0.249,0.751-0.432c0.102-0.183,0.153-0.556,0.153-1.121v-7.139c0-0.564-0.051-0.938-0.153-1.121
		c-0.103-0.183-0.353-0.321-0.751-0.415v-0.548h4.449v0.548c-0.398,0.094-0.645,0.223-0.739,0.386
		c-0.094,0.164-0.141,0.547-0.141,1.15v8.185h3.428v-8.185c0-0.548-0.051-0.917-0.153-1.108c-0.103-0.191-0.35-0.333-0.743-0.428
		v-0.548h4.383v0.548c-0.382,0.094-0.625,0.234-0.73,0.419c-0.105,0.186-0.158,0.558-0.158,1.117V22.355z"/>
	<path d="M255.096,21.318c0,0.559,0.048,0.931,0.145,1.117c0.097,0.185,0.342,0.325,0.735,0.419v0.548h-4.333v-0.548
		c0.398-0.094,0.645-0.223,0.739-0.386c0.094-0.164,0.141-0.547,0.141-1.15v-3.246c0-0.979,0.025-1.724,0.075-2.233h-0.05
		l-3.943,5.479c0,0.548,0.051,0.917,0.154,1.108c0.102,0.191,0.35,0.333,0.743,0.428v0.548h-4.358v-0.548
		c0.382-0.094,0.625-0.234,0.73-0.419c0.105-0.186,0.158-0.558,0.158-1.117v-7.155c0-0.57-0.05-0.943-0.149-1.121
		s-0.346-0.318-0.739-0.423v-0.548h4.358v0.548c-0.393,0.111-0.641,0.257-0.743,0.44c-0.103,0.183-0.154,0.553-0.154,1.112v3.652
		c0,0.692-0.02,1.237-0.058,1.635h0.05l3.926-5.487c0-0.465-0.05-0.782-0.149-0.95c-0.1-0.169-0.343-0.303-0.73-0.403v-0.548h4.333
		v0.548c-0.387,0.105-0.631,0.248-0.73,0.427c-0.1,0.18-0.149,0.555-0.149,1.125V21.318z"/>
	<path d="M267.531,21.318c0,0.559,0.048,0.931,0.145,1.117c0.097,0.185,0.342,0.325,0.735,0.419v0.548h-4.333v-0.548
		c0.398-0.094,0.645-0.223,0.739-0.386c0.094-0.164,0.141-0.547,0.141-1.15v-3.246c0-0.979,0.025-1.724,0.075-2.233h-0.05
		l-3.943,5.479c0,0.548,0.051,0.917,0.154,1.108c0.102,0.191,0.35,0.333,0.743,0.428v0.548h-4.358v-0.548
		c0.382-0.094,0.625-0.234,0.73-0.419c0.105-0.186,0.158-0.558,0.158-1.117v-7.155c0-0.57-0.05-0.943-0.149-1.121
		s-0.346-0.318-0.739-0.423v-0.548h4.358v0.548c-0.393,0.111-0.641,0.257-0.743,0.44c-0.103,0.183-0.154,0.553-0.154,1.112v3.652
		c0,0.692-0.02,1.237-0.058,1.635h0.05l3.926-5.487c0-0.465-0.05-0.782-0.149-0.95c-0.1-0.169-0.343-0.303-0.73-0.403v-0.548h4.333
		v0.548c-0.387,0.105-0.631,0.248-0.73,0.427c-0.1,0.18-0.149,0.555-0.149,1.125V21.318z"/>
	<path d="M278.222,23.401h-4.466v-0.548c0.382-0.094,0.625-0.234,0.73-0.419c0.105-0.186,0.158-0.561,0.158-1.125v-7.147
		c0-0.57-0.05-0.943-0.149-1.121s-0.346-0.318-0.739-0.423v-0.548h8.027v3.138h-1.137c-0.304-0.979-0.576-1.582-0.813-1.805
		c-0.238-0.225-0.576-0.336-1.013-0.336h-1.602v8.251c0,0.576,0.058,0.958,0.174,1.146s0.393,0.318,0.83,0.39V23.401z"/>
	<path d="M287.602,23.534c-1.627,0-2.849-0.476-3.665-1.428c-0.816-0.952-1.225-2.377-1.225-4.275c0-1.245,0.198-2.309,0.594-3.192
		c0.396-0.882,0.978-1.553,1.747-2.013s1.685-0.689,2.748-0.689c1.655,0,2.897,0.475,3.727,1.423
		c0.83,0.949,1.245,2.359,1.245,4.229c0,1.046-0.123,1.944-0.369,2.693c-0.247,0.75-0.597,1.366-1.05,1.847
		s-0.998,0.835-1.631,1.063C289.089,23.421,288.382,23.534,287.602,23.534z M285.353,17.607c0,1.671,0.201,2.915,0.602,3.731
		c0.401,0.816,1.014,1.224,1.839,1.224c0.426,0,0.789-0.115,1.087-0.344c0.299-0.23,0.541-0.551,0.726-0.963
		c0.186-0.413,0.318-0.901,0.398-1.465c0.081-0.564,0.121-1.184,0.121-1.859c0-1.101-0.087-2.024-0.261-2.768
		c-0.175-0.745-0.438-1.306-0.789-1.686c-0.351-0.379-0.801-0.568-1.349-0.568c-0.802,0-1.398,0.383-1.789,1.149
		C285.548,14.825,285.353,16.008,285.353,17.607z"/>
	<path d="M302.693,12.328v2.407h-1.129c-0.133-0.625-0.344-1.086-0.631-1.382c-0.288-0.296-0.664-0.444-1.129-0.444
		c-0.875,0-1.536,0.419-1.984,1.258c-0.448,0.838-0.672,2.082-0.672,3.731c0,1.533,0.204,2.694,0.614,3.482
		c0.409,0.789,1.01,1.183,1.801,1.183c0.404,0,0.733-0.068,0.988-0.204c0.254-0.135,0.458-0.339,0.609-0.61
		c0.152-0.271,0.284-0.653,0.395-1.146h1.138v2.515c-0.609,0.144-1.165,0.249-1.669,0.315c-0.503,0.066-1.026,0.1-1.568,0.1
		c-1.151,0-2.091-0.208-2.818-0.623c-0.728-0.415-1.265-1.042-1.61-1.88c-0.346-0.838-0.519-1.899-0.519-3.183
		c0-1.201,0.204-2.246,0.61-3.133c0.407-0.889,1.006-1.573,1.797-2.055c0.791-0.481,1.737-0.722,2.839-0.722
		c0.559,0,1.065,0.03,1.519,0.091C301.727,12.09,302.2,12.19,302.693,12.328z"/>
	<path d="M309.317,20.43c-0.504,1.063-1.002,1.856-1.494,2.382c-0.493,0.526-1.129,0.789-1.909,0.789
		c-0.438,0-0.958-0.08-1.561-0.241v-2.324h1.212c0.027,0.708,0.29,1.063,0.788,1.063c0.598,0,1.143-0.506,1.636-1.519l-2.897-6.284
		c-0.293-0.636-0.527-1.071-0.701-1.303c-0.175-0.232-0.395-0.357-0.66-0.374v-0.548h4.425v0.548
		c-0.427,0.055-0.64,0.266-0.64,0.631c0,0.21,0.146,0.647,0.44,1.312l1.419,3.304l1.361-3.229c0.244-0.576,0.365-1.029,0.365-1.361
		c0-0.415-0.216-0.634-0.647-0.656v-0.548h3.287v0.548c-0.31,0.066-0.585,0.256-0.826,0.569c-0.24,0.313-0.519,0.771-0.834,1.374
		L309.317,20.43z"/>
	<path d="M314.795,23.401c-0.548,0-0.923,0.191-1.125,0.573s-0.405,1.187-0.61,2.416h-1.096v-4.051h0.889
		c0.847-1.184,1.527-2.628,2.042-4.333s0.771-3.129,0.771-4.275c0-0.437-0.074-0.725-0.224-0.863s-0.354-0.221-0.614-0.249v-0.548
		h7.479v0.548c-0.387,0.094-0.646,0.217-0.776,0.37c-0.13,0.152-0.194,0.582-0.194,1.291v8.06h1.328v4.051h-1.096
		c-0.188-1.134-0.384-1.916-0.586-2.345c-0.201-0.429-0.59-0.644-1.166-0.644H314.795z M318.763,22.339v-9.28h-1.785
		c-0.337,3.957-1.217,7.05-2.64,9.28H318.763z"/>
	<path d="M329.969,19.89h-3.545l-0.273,0.789c-0.078,0.221-0.142,0.436-0.191,0.644c-0.05,0.207-0.074,0.427-0.074,0.66
		c0,0.542,0.287,0.833,0.863,0.872v0.548h-3.545v-0.548c0.205-0.022,0.385-0.094,0.54-0.216c0.154-0.122,0.296-0.288,0.423-0.498
		c0.128-0.21,0.263-0.512,0.407-0.905l3.461-9.222h2.217l2.739,9.297c0.121,0.415,0.224,0.71,0.307,0.884
		c0.083,0.175,0.191,0.315,0.324,0.424c0.133,0.107,0.318,0.187,0.556,0.236v0.548h-4.582v-0.548
		c0.288-0.033,0.501-0.113,0.64-0.241c0.138-0.127,0.207-0.307,0.207-0.54c0-0.171-0.02-0.362-0.058-0.573
		c-0.039-0.21-0.103-0.476-0.191-0.797L329.969,19.89z M326.74,18.919h2.988l-1.328-4.673L326.74,18.919z"/>
	<path d="M338.61,21.326c0,0.365,0.014,0.624,0.042,0.776c0.027,0.152,0.073,0.273,0.137,0.365c0.063,0.091,0.155,0.167,0.274,0.228
		c0.118,0.061,0.303,0.113,0.552,0.158v0.548h-4.466v-0.548c0.204-0.055,0.366-0.115,0.485-0.179
		c0.119-0.063,0.208-0.152,0.266-0.266c0.059-0.113,0.096-0.257,0.112-0.432c0.017-0.174,0.024-0.394,0.024-0.66v-7.155
		c0-0.26-0.007-0.479-0.021-0.656s-0.05-0.321-0.107-0.432c-0.059-0.111-0.147-0.201-0.266-0.27
		c-0.119-0.069-0.284-0.132-0.494-0.187v-0.548h4.822c1.4,0,2.449,0.25,3.146,0.751c0.697,0.5,1.046,1.271,1.046,2.312
		c0,0.736-0.163,1.375-0.49,1.917c-0.326,0.542-0.8,0.953-1.419,1.233c-0.62,0.279-1.395,0.419-2.324,0.419
		c-0.537,0-0.977-0.011-1.32-0.033V21.326z M338.61,17.732h0.714c0.554,0,0.993-0.079,1.32-0.237
		c0.326-0.157,0.568-0.408,0.727-0.751c0.157-0.343,0.236-0.805,0.236-1.386c0-0.576-0.079-1.034-0.236-1.374
		c-0.158-0.341-0.39-0.583-0.693-0.727c-0.305-0.144-0.694-0.216-1.171-0.216c-0.387,0-0.686,0.005-0.896,0.017V17.732z"/>
	<path d="M353.709,12.328v2.407h-1.129c-0.133-0.625-0.344-1.086-0.631-1.382c-0.288-0.296-0.664-0.444-1.129-0.444
		c-0.875,0-1.536,0.419-1.984,1.258c-0.448,0.838-0.672,2.082-0.672,3.731c0,1.533,0.204,2.694,0.614,3.482
		c0.409,0.789,1.01,1.183,1.801,1.183c0.404,0,0.733-0.068,0.988-0.204c0.254-0.135,0.458-0.339,0.609-0.61
		c0.152-0.271,0.284-0.653,0.395-1.146h1.138v2.515c-0.609,0.144-1.165,0.249-1.669,0.315c-0.503,0.066-1.026,0.1-1.568,0.1
		c-1.151,0-2.091-0.208-2.818-0.623s-1.265-1.042-1.61-1.88c-0.346-0.838-0.519-1.899-0.519-3.183c0-1.201,0.203-2.246,0.609-3.133
		c0.407-0.889,1.006-1.573,1.798-2.055c0.791-0.481,1.737-0.722,2.839-0.722c0.559,0,1.065,0.03,1.519,0.091
		C352.744,12.09,353.216,12.19,353.709,12.328z"/>
	<path d="M357.562,23.401v-0.548c0.232-0.039,0.416-0.09,0.551-0.153c0.137-0.064,0.236-0.154,0.303-0.27s0.109-0.264,0.125-0.444
		c0.018-0.18,0.025-0.403,0.025-0.668v-8.276h-0.672c-0.332,0-0.588,0.039-0.764,0.116c-0.178,0.078-0.332,0.199-0.461,0.365
		c-0.131,0.166-0.242,0.389-0.337,0.668c-0.095,0.28-0.171,0.544-0.232,0.793h-1.138v-2.914h9.771v2.914h-1.139
		c-0.105-0.376-0.188-0.653-0.248-0.83s-0.129-0.328-0.203-0.452c-0.076-0.125-0.154-0.229-0.236-0.312
		c-0.084-0.083-0.172-0.149-0.266-0.199c-0.096-0.05-0.213-0.087-0.354-0.112c-0.141-0.024-0.326-0.037-0.553-0.037h-0.598v8.276
		c0,0.293,0.01,0.516,0.025,0.668c0.018,0.152,0.047,0.275,0.092,0.369c0.043,0.094,0.098,0.17,0.162,0.229
		c0.063,0.058,0.152,0.11,0.266,0.157c0.113,0.047,0.266,0.084,0.461,0.112v0.548H357.562z"/>
	<path d="M373.224,17.466c0.775,0.244,1.366,0.596,1.772,1.058c0.407,0.462,0.61,1.017,0.61,1.665c0,0.553-0.093,1.035-0.278,1.444
		s-0.468,0.746-0.847,1.008c-0.379,0.263-0.824,0.456-1.336,0.577s-1.164,0.183-1.955,0.183h-5.113v-0.548
		c0.205-0.055,0.366-0.115,0.485-0.179c0.119-0.063,0.208-0.152,0.266-0.266c0.059-0.113,0.096-0.257,0.112-0.432
		c0.017-0.174,0.025-0.394,0.025-0.66v-7.155c0-0.26-0.008-0.479-0.021-0.656s-0.05-0.321-0.107-0.432
		c-0.059-0.111-0.146-0.201-0.266-0.27c-0.119-0.069-0.284-0.132-0.494-0.187v-0.548h5.438c0.619,0,1.126,0.03,1.519,0.091
		c0.521,0.083,0.972,0.227,1.353,0.432c0.344,0.183,0.612,0.443,0.806,0.78s0.29,0.739,0.29,1.204c0,1.25-0.752,2.188-2.258,2.814
		V17.466z M370.643,17.035c0.554,0,0.987-0.08,1.304-0.241c0.314-0.161,0.555-0.389,0.718-0.685
		c0.163-0.296,0.245-0.705,0.245-1.225c0-0.459-0.089-0.823-0.266-1.092c-0.178-0.268-0.43-0.46-0.756-0.577
		s-0.733-0.174-1.221-0.174c-0.387,0-0.764,0.014-1.129,0.042v3.951H370.643z M369.539,22.405c0.327,0.017,0.703,0.025,1.129,0.025
		c0.526,0,0.959-0.065,1.3-0.195c0.34-0.13,0.604-0.357,0.792-0.681c0.188-0.324,0.283-0.768,0.283-1.333
		c0-0.398-0.051-0.74-0.15-1.025c-0.1-0.285-0.248-0.515-0.447-0.689c-0.199-0.174-0.438-0.301-0.715-0.382
		c-0.276-0.08-0.622-0.12-1.037-0.12h-1.154V22.405z"/>
	<path d="M385.385,12.071v2.64h-1.137c-0.184-0.526-0.338-0.881-0.465-1.067c-0.128-0.185-0.28-0.332-0.457-0.439
		c-0.177-0.108-0.479-0.162-0.904-0.162h-1.811v3.984h1.096c0.244,0,0.435-0.035,0.573-0.104c0.139-0.069,0.253-0.184,0.345-0.345
		c0.091-0.161,0.178-0.41,0.262-0.747h0.938v3.37h-0.938c-0.078-0.321-0.164-0.566-0.258-0.734c-0.094-0.169-0.206-0.29-0.336-0.361
		s-0.325-0.108-0.586-0.108h-1.096v4.433h1.802c0.193,0,0.356-0.012,0.489-0.038c0.133-0.024,0.252-0.067,0.357-0.128
		s0.206-0.144,0.303-0.249s0.183-0.219,0.258-0.34c0.074-0.122,0.153-0.282,0.236-0.481s0.174-0.473,0.273-0.822h1.138l-0.157,3.03
		h-8.16v-0.548c0.205-0.055,0.366-0.115,0.485-0.179c0.119-0.063,0.208-0.152,0.266-0.266c0.059-0.113,0.096-0.257,0.112-0.432
		c0.017-0.174,0.025-0.394,0.025-0.66v-7.155c0-0.26-0.008-0.479-0.021-0.656s-0.05-0.321-0.107-0.432
		c-0.059-0.111-0.146-0.201-0.266-0.27c-0.119-0.069-0.284-0.132-0.494-0.187v-0.548H385.385z"/>
	<path d="M396.757,21.318c0,0.426,0.018,0.718,0.054,0.875c0.036,0.158,0.109,0.29,0.22,0.395s0.313,0.194,0.605,0.266v0.548h-4.332
		v-0.548c0.32-0.083,0.528-0.166,0.622-0.249s0.16-0.201,0.199-0.353c0.039-0.152,0.058-0.464,0.058-0.934v-3.329h-3.752v3.329
		c0,0.194,0.006,0.374,0.018,0.54c0.011,0.166,0.033,0.302,0.066,0.407s0.081,0.194,0.145,0.266s0.151,0.134,0.262,0.187
		c0.11,0.052,0.246,0.098,0.406,0.137v0.548h-4.357v-0.548c0.205-0.055,0.366-0.115,0.485-0.179
		c0.119-0.063,0.208-0.152,0.266-0.266c0.059-0.113,0.096-0.257,0.112-0.432c0.017-0.174,0.025-0.394,0.025-0.66v-7.155
		c0-0.26-0.008-0.479-0.021-0.656s-0.05-0.321-0.107-0.432c-0.059-0.111-0.146-0.201-0.266-0.27
		c-0.119-0.069-0.284-0.132-0.494-0.187v-0.548h4.357v0.548c-0.293,0.083-0.493,0.174-0.602,0.274
		c-0.107,0.1-0.184,0.231-0.229,0.395c-0.044,0.163-0.066,0.458-0.066,0.884v2.772h3.752v-2.772c0-0.42-0.018-0.712-0.054-0.876
		c-0.036-0.163-0.107-0.296-0.216-0.398c-0.107-0.102-0.311-0.195-0.609-0.278v-0.548h4.332v0.548
		c-0.243,0.066-0.42,0.137-0.531,0.211c-0.11,0.075-0.189,0.17-0.236,0.287s-0.077,0.246-0.091,0.39s-0.021,0.365-0.021,0.664
		V21.318z"/>
	<path d="M409.027,21.318c0,0.426,0.018,0.718,0.054,0.875c0.036,0.158,0.109,0.29,0.22,0.395s0.313,0.194,0.605,0.266v0.548h-4.332
		v-0.548c0.32-0.083,0.528-0.166,0.622-0.249s0.16-0.201,0.199-0.353c0.039-0.152,0.058-0.464,0.058-0.934v-3.329h-3.752v3.329
		c0,0.194,0.006,0.374,0.018,0.54c0.011,0.166,0.033,0.302,0.066,0.407s0.081,0.194,0.145,0.266s0.151,0.134,0.262,0.187
		c0.11,0.052,0.246,0.098,0.406,0.137v0.548h-4.357v-0.548c0.205-0.055,0.366-0.115,0.485-0.179
		c0.119-0.063,0.208-0.152,0.266-0.266c0.059-0.113,0.096-0.257,0.112-0.432c0.017-0.174,0.025-0.394,0.025-0.66v-7.155
		c0-0.26-0.008-0.479-0.021-0.656s-0.05-0.321-0.107-0.432c-0.059-0.111-0.146-0.201-0.266-0.27
		c-0.119-0.069-0.284-0.132-0.494-0.187v-0.548h4.357v0.548c-0.293,0.083-0.493,0.174-0.602,0.274
		c-0.107,0.1-0.184,0.231-0.229,0.395c-0.044,0.163-0.066,0.458-0.066,0.884v2.772h3.752v-2.772c0-0.42-0.018-0.712-0.054-0.876
		c-0.036-0.163-0.107-0.296-0.216-0.398c-0.107-0.102-0.311-0.195-0.609-0.278v-0.548h4.332v0.548
		c-0.243,0.066-0.42,0.137-0.531,0.211c-0.11,0.075-0.189,0.17-0.236,0.287s-0.077,0.246-0.091,0.39s-0.021,0.365-0.021,0.664
		V21.318z"/>
	<path d="M416.48,23.534c-1.627,0-2.849-0.476-3.665-1.428s-1.225-2.377-1.225-4.275c0-1.245,0.198-2.309,0.594-3.192
		c0.396-0.882,0.978-1.553,1.747-2.013s1.686-0.689,2.748-0.689c1.654,0,2.896,0.475,3.727,1.423
		c0.83,0.949,1.245,2.359,1.245,4.229c0,1.046-0.123,1.944-0.369,2.693c-0.246,0.75-0.597,1.366-1.05,1.847
		c-0.454,0.481-0.998,0.835-1.632,1.063S417.259,23.534,416.48,23.534z M414.23,17.607c0,1.671,0.2,2.915,0.602,3.731
		c0.401,0.816,1.015,1.224,1.839,1.224c0.426,0,0.788-0.115,1.087-0.344c0.299-0.23,0.541-0.551,0.727-0.963
		c0.186-0.413,0.318-0.901,0.398-1.465s0.121-1.184,0.121-1.859c0-1.101-0.088-2.024-0.262-2.768
		c-0.175-0.745-0.438-1.306-0.789-1.686c-0.352-0.379-0.801-0.568-1.349-0.568c-0.803,0-1.398,0.383-1.789,1.149
		C414.425,14.825,414.23,16.008,414.23,17.607z"/>
	<path d="M433.281,21.318c0,0.559,0.048,0.931,0.145,1.117c0.097,0.185,0.342,0.325,0.734,0.419v0.548h-4.332v-0.548
		c0.398-0.094,0.645-0.223,0.738-0.386c0.094-0.164,0.141-0.547,0.141-1.15v-3.246c0-0.979,0.025-1.724,0.075-2.233h-0.05
		l-3.943,5.479c0,0.548,0.052,0.917,0.154,1.108c0.103,0.191,0.35,0.333,0.742,0.428v0.548h-4.357v-0.548
		c0.382-0.094,0.625-0.234,0.73-0.419c0.105-0.186,0.158-0.558,0.158-1.117v-7.155c0-0.57-0.051-0.943-0.15-1.121
		s-0.346-0.318-0.738-0.423v-0.548h4.357v0.548c-0.393,0.111-0.64,0.257-0.742,0.44s-0.154,0.553-0.154,1.112v3.652
		c0,0.692-0.019,1.237-0.058,1.635h0.05l3.926-5.487c0-0.465-0.049-0.782-0.148-0.95c-0.1-0.169-0.344-0.303-0.73-0.403v-0.548
		h4.332v0.548c-0.387,0.105-0.631,0.248-0.73,0.427c-0.1,0.18-0.148,0.555-0.148,1.125V21.318z M431.711,9.024
		c0,0.62-0.274,1.103-0.821,1.448c-0.549,0.346-1.281,0.519-2.2,0.519c-1.959,0-2.938-0.656-2.938-1.967V8.518h1.693V8.95
		c0,0.83,0.421,1.245,1.262,1.245c0.481,0,0.819-0.103,1.013-0.307s0.29-0.518,0.29-0.938V8.518h1.702V9.024z"/>
	<path d="M102.486,43.534c-1.627,0-2.849-0.476-3.665-1.428c-0.816-0.952-1.225-2.377-1.225-4.275c0-1.245,0.198-2.309,0.594-3.192
		c0.396-0.882,0.978-1.553,1.747-2.013s1.685-0.689,2.748-0.689c1.655,0,2.897,0.475,3.727,1.423
		c0.83,0.949,1.245,2.359,1.245,4.229c0,1.046-0.123,1.944-0.369,2.693c-0.247,0.75-0.597,1.366-1.05,1.847
		s-0.998,0.835-1.631,1.063C103.974,43.421,103.267,43.534,102.486,43.534z M100.237,37.607c0,1.671,0.201,2.915,0.602,3.731
		c0.401,0.816,1.014,1.224,1.839,1.224c0.426,0,0.789-0.115,1.087-0.344c0.299-0.23,0.541-0.551,0.726-0.963
		c0.186-0.413,0.318-0.901,0.398-1.465c0.081-0.564,0.121-1.184,0.121-1.859c0-1.101-0.087-2.024-0.261-2.768
		c-0.175-0.745-0.438-1.306-0.789-1.686c-0.351-0.379-0.801-0.568-1.349-0.568c-0.802,0-1.398,0.383-1.789,1.149
		C100.432,34.825,100.237,36.008,100.237,37.607z"/>
	<path d="M109.334,43.401v-0.548c0.382-0.094,0.625-0.234,0.73-0.419c0.105-0.186,0.158-0.558,0.158-1.117v-7.155
		c0-0.57-0.05-0.943-0.149-1.121s-0.346-0.318-0.739-0.423v-0.548h8.741v2.806h-1.137c-0.249-0.775-0.491-1.27-0.727-1.486
		c-0.235-0.216-0.602-0.324-1.1-0.324h-2.316v3.818c0.752-0.072,1.392-0.108,1.917-0.108c1.389,0,2.428,0.266,3.117,0.797
		c0.688,0.531,1.033,1.375,1.033,2.532c0,2.197-1.472,3.295-4.416,3.295H109.334z M112.796,42.405
		c1.439,0.094,2.382-0.051,2.831-0.436c0.448-0.385,0.672-0.995,0.672-1.831c0-1.533-0.755-2.299-2.266-2.299h-0.291
		c-0.387,0-0.703,0.017-0.946,0.05V42.405z"/>
	<path d="M123.745,41.326c0,0.365,0.014,0.624,0.042,0.776c0.028,0.152,0.073,0.273,0.137,0.365
		c0.064,0.091,0.155,0.167,0.274,0.228c0.119,0.061,0.303,0.113,0.552,0.158v0.548h-4.466v-0.548
		c0.205-0.055,0.367-0.115,0.485-0.179c0.119-0.063,0.208-0.152,0.266-0.266c0.059-0.113,0.096-0.257,0.112-0.432
		c0.017-0.174,0.025-0.394,0.025-0.66v-7.155c0-0.26-0.007-0.479-0.021-0.656c-0.014-0.177-0.05-0.321-0.107-0.432
		c-0.059-0.111-0.147-0.201-0.266-0.27c-0.119-0.069-0.284-0.132-0.494-0.187v-0.548h4.823c1.4,0,2.449,0.25,3.146,0.751
		c0.697,0.5,1.046,1.271,1.046,2.312c0,0.736-0.163,1.375-0.49,1.917s-0.8,0.953-1.419,1.233c-0.62,0.279-1.395,0.419-2.324,0.419
		c-0.537,0-0.977-0.011-1.32-0.033V41.326z M123.745,37.732h0.714c0.553,0,0.993-0.079,1.32-0.237
		c0.327-0.157,0.568-0.408,0.727-0.751c0.157-0.343,0.236-0.805,0.236-1.386c0-0.576-0.079-1.034-0.236-1.374
		c-0.158-0.341-0.389-0.583-0.693-0.727s-0.694-0.216-1.17-0.216c-0.387,0-0.686,0.005-0.896,0.017V37.732z"/>
	<path d="M135.059,39.89h-3.544l-0.274,0.789c-0.078,0.221-0.141,0.436-0.191,0.644c-0.05,0.207-0.075,0.427-0.075,0.66
		c0,0.542,0.288,0.833,0.863,0.872v0.548h-3.544v-0.548c0.205-0.022,0.385-0.094,0.54-0.216s0.296-0.288,0.423-0.498
		s0.263-0.512,0.407-0.905l3.461-9.222h2.216l2.739,9.297c0.122,0.415,0.224,0.71,0.307,0.884c0.083,0.175,0.191,0.315,0.324,0.424
		c0.133,0.107,0.318,0.187,0.556,0.236v0.548h-4.582v-0.548c0.288-0.033,0.501-0.113,0.639-0.241s0.208-0.307,0.208-0.54
		c0-0.171-0.02-0.362-0.058-0.573s-0.103-0.476-0.191-0.797L135.059,39.89z M131.83,38.919h2.988l-1.328-4.673L131.83,38.919z"/>
	<path d="M145.21,37.483c1.765,0.503,2.648,1.431,2.648,2.781c0,1.046-0.38,1.853-1.142,2.42c-0.761,0.567-1.894,0.851-3.399,0.851
		c-0.941,0-1.998-0.163-3.171-0.49v-2.474h1.154c0.254,0.825,0.537,1.367,0.847,1.627s0.744,0.39,1.303,0.39
		c0.564,0,1.003-0.195,1.316-0.585c0.313-0.391,0.469-0.959,0.469-1.706c0-0.802-0.171-1.358-0.515-1.668s-0.899-0.465-1.668-0.465
		h-1.378V36.86h1.32c0.686,0,1.202-0.144,1.548-0.432c0.346-0.288,0.519-0.863,0.519-1.727c0-0.581-0.145-1.031-0.436-1.349
		c-0.29-0.318-0.663-0.478-1.116-0.478c-0.553,0-0.982,0.137-1.287,0.411c-0.304,0.273-0.586,0.771-0.847,1.49h-1.146v-2.349
		c1.35-0.332,2.532-0.498,3.544-0.498c2.595,0,3.893,0.888,3.893,2.665c0,1.223-0.819,2.15-2.457,2.781V37.483z"/>
	<path d="M154.225,43.534c-1.627,0-2.849-0.476-3.665-1.428c-0.816-0.952-1.225-2.377-1.225-4.275c0-1.245,0.198-2.309,0.594-3.192
		c0.396-0.882,0.978-1.553,1.747-2.013s1.685-0.689,2.748-0.689c1.655,0,2.897,0.475,3.727,1.423
		c0.83,0.949,1.245,2.359,1.245,4.229c0,1.046-0.123,1.944-0.369,2.693c-0.247,0.75-0.597,1.366-1.05,1.847
		s-0.998,0.835-1.631,1.063C155.712,43.421,155.005,43.534,154.225,43.534z M151.976,37.607c0,1.671,0.201,2.915,0.602,3.731
		c0.401,0.816,1.014,1.224,1.839,1.224c0.426,0,0.789-0.115,1.087-0.344c0.299-0.23,0.541-0.551,0.726-0.963
		c0.186-0.413,0.318-0.901,0.398-1.465c0.081-0.564,0.121-1.184,0.121-1.859c0-1.101-0.087-2.024-0.261-2.768
		c-0.175-0.745-0.438-1.306-0.789-1.686c-0.351-0.379-0.801-0.568-1.349-0.568c-0.802,0-1.398,0.383-1.789,1.149
		C152.171,34.825,151.976,36.008,151.976,37.607z"/>
	<path d="M168.22,37.466c0.775,0.244,1.366,0.596,1.772,1.058c0.407,0.462,0.61,1.017,0.61,1.665c0,0.553-0.093,1.035-0.278,1.444
		c-0.185,0.41-0.467,0.746-0.847,1.008c-0.379,0.263-0.824,0.456-1.336,0.577c-0.512,0.122-1.164,0.183-1.955,0.183h-5.113v-0.548
		c0.205-0.055,0.367-0.115,0.485-0.179c0.119-0.063,0.208-0.152,0.266-0.266c0.059-0.113,0.096-0.257,0.112-0.432
		c0.017-0.174,0.025-0.394,0.025-0.66v-7.155c0-0.26-0.007-0.479-0.021-0.656c-0.014-0.177-0.05-0.321-0.107-0.432
		c-0.059-0.111-0.147-0.201-0.266-0.27c-0.119-0.069-0.284-0.132-0.494-0.187v-0.548h5.437c0.62,0,1.126,0.03,1.519,0.091
		c0.52,0.083,0.971,0.227,1.353,0.432c0.343,0.183,0.611,0.443,0.805,0.78s0.291,0.739,0.291,1.204c0,1.25-0.752,2.188-2.258,2.814
		V37.466z M165.639,37.035c0.553,0,0.988-0.08,1.303-0.241s0.555-0.389,0.718-0.685c0.163-0.296,0.245-0.705,0.245-1.225
		c0-0.459-0.088-0.823-0.266-1.092c-0.177-0.268-0.429-0.46-0.755-0.577s-0.733-0.174-1.22-0.174c-0.387,0-0.764,0.014-1.129,0.042
		v3.951H165.639z M164.535,42.405c0.327,0.017,0.703,0.025,1.129,0.025c0.526,0,0.958-0.065,1.299-0.195
		c0.34-0.13,0.604-0.357,0.792-0.681c0.188-0.324,0.282-0.768,0.282-1.333c0-0.398-0.05-0.74-0.149-1.025
		c-0.1-0.285-0.249-0.515-0.448-0.689c-0.199-0.174-0.437-0.301-0.714-0.382c-0.277-0.08-0.623-0.12-1.038-0.12h-1.154V42.405z"/>
	<path d="M177.824,39.89h-3.544l-0.274,0.789c-0.078,0.221-0.141,0.436-0.191,0.644c-0.05,0.207-0.075,0.427-0.075,0.66
		c0,0.542,0.288,0.833,0.863,0.872v0.548h-3.544v-0.548c0.205-0.022,0.385-0.094,0.54-0.216s0.296-0.288,0.423-0.498
		s0.263-0.512,0.407-0.905l3.461-9.222h2.216l2.739,9.297c0.122,0.415,0.224,0.71,0.307,0.884c0.083,0.175,0.191,0.315,0.324,0.424
		c0.133,0.107,0.318,0.187,0.556,0.236v0.548h-4.582v-0.548c0.288-0.033,0.501-0.113,0.639-0.241s0.208-0.307,0.208-0.54
		c0-0.171-0.02-0.362-0.058-0.573s-0.103-0.476-0.191-0.797L177.824,39.89z M174.595,38.919h2.988l-1.328-4.673L174.595,38.919z"/>
	<path d="M183.975,43.401v-0.548c0.232-0.039,0.417-0.09,0.552-0.153c0.135-0.064,0.236-0.154,0.303-0.27s0.108-0.264,0.125-0.444
		c0.017-0.18,0.025-0.403,0.025-0.668v-8.276h-0.672c-0.332,0-0.586,0.039-0.764,0.116s-0.331,0.199-0.46,0.365
		c-0.13,0.166-0.242,0.389-0.336,0.668c-0.094,0.28-0.171,0.544-0.232,0.793h-1.137v-2.914h9.77v2.914h-1.137
		c-0.105-0.376-0.188-0.653-0.249-0.83s-0.129-0.328-0.203-0.452c-0.075-0.125-0.154-0.229-0.237-0.312s-0.171-0.149-0.266-0.199
		s-0.211-0.087-0.353-0.112c-0.141-0.024-0.325-0.037-0.552-0.037h-0.598v8.276c0,0.293,0.008,0.516,0.025,0.668
		c0.017,0.152,0.047,0.275,0.091,0.369s0.098,0.17,0.162,0.229c0.063,0.058,0.152,0.11,0.266,0.157
		c0.113,0.047,0.267,0.084,0.46,0.112v0.548H183.975z"/>
	<path d="M200.726,32.071v2.64h-1.137c-0.183-0.526-0.337-0.881-0.465-1.067c-0.127-0.185-0.279-0.332-0.457-0.439
		c-0.177-0.108-0.479-0.162-0.905-0.162h-1.81v3.984h1.096c0.244,0,0.435-0.035,0.573-0.104c0.138-0.069,0.253-0.184,0.345-0.345
		c0.091-0.161,0.178-0.41,0.261-0.747h0.938v3.37h-0.938c-0.078-0.321-0.163-0.566-0.257-0.734c-0.094-0.169-0.206-0.29-0.336-0.361
		c-0.13-0.072-0.325-0.108-0.585-0.108h-1.096v4.433h1.801c0.194,0,0.357-0.012,0.49-0.038c0.133-0.024,0.252-0.067,0.357-0.128
		s0.206-0.144,0.303-0.249c0.097-0.105,0.183-0.219,0.258-0.34c0.074-0.122,0.153-0.282,0.236-0.481s0.174-0.473,0.274-0.822h1.137
		l-0.158,3.03h-8.16v-0.548c0.205-0.055,0.367-0.115,0.485-0.179c0.119-0.063,0.208-0.152,0.266-0.266
		c0.059-0.113,0.096-0.257,0.112-0.432c0.017-0.174,0.025-0.394,0.025-0.66v-7.155c0-0.26-0.007-0.479-0.021-0.656
		c-0.014-0.177-0.05-0.321-0.107-0.432c-0.059-0.111-0.147-0.201-0.266-0.27c-0.119-0.069-0.284-0.132-0.494-0.187v-0.548H200.726z"
		/>
	<path d="M212.82,43.401h-4.541v-0.548c0.47-0.111,0.755-0.274,0.855-0.49s0.149-0.609,0.149-1.179v-8.126h-1.834
		c-0.111,1.284-0.322,2.665-0.635,4.142c-0.313,1.478-0.657,2.721-1.033,3.731c-0.376,1.01-0.775,1.696-1.195,2.059
		c-0.42,0.363-0.958,0.544-1.61,0.544c-0.503,0-0.963-0.066-1.378-0.199v-2.009h1.063c0.078,0.487,0.288,0.73,0.631,0.73
		c0.271,0,0.528-0.12,0.772-0.361c0.244-0.24,0.518-0.821,0.822-1.743c0.304-0.921,0.589-2.042,0.855-3.361
		c0.266-1.32,0.398-2.279,0.398-2.876c0-0.41-0.062-0.685-0.187-0.826c-0.124-0.142-0.341-0.231-0.651-0.27v-0.548h7.521v0.548
		c-0.393,0.1-0.651,0.227-0.776,0.382c-0.124,0.155-0.187,0.581-0.187,1.278v6.906c0,0.659,0.058,1.076,0.174,1.253
		s0.379,0.315,0.789,0.415V43.401z"/>
	<path d="M218.896,32.071v0.548c-0.426,0.066-0.702,0.196-0.826,0.39c-0.125,0.194-0.187,0.578-0.187,1.154v2.723
		c0.752-0.072,1.392-0.108,1.917-0.108c1.389,0,2.428,0.266,3.117,0.797c0.688,0.531,1.033,1.375,1.033,2.532
		c0,2.197-1.472,3.295-4.416,3.295h-5.113v-0.548c0.382-0.094,0.625-0.234,0.73-0.419c0.105-0.186,0.158-0.558,0.158-1.117v-7.155
		c0-0.57-0.05-0.943-0.149-1.121s-0.346-0.318-0.739-0.423v-0.548H218.896z M217.884,37.89v4.516
		c1.439,0.094,2.382-0.051,2.831-0.436c0.448-0.385,0.672-0.995,0.672-1.831c0-1.533-0.755-2.299-2.266-2.299h-0.291
		C218.443,37.84,218.127,37.856,217.884,37.89z"/>
	<path d="M235.116,41.318c0,0.426,0.018,0.718,0.054,0.875c0.036,0.158,0.109,0.29,0.22,0.395s0.313,0.194,0.606,0.266v0.548h-4.333
		v-0.548c0.321-0.083,0.528-0.166,0.623-0.249s0.161-0.201,0.199-0.353c0.039-0.152,0.058-0.464,0.058-0.934v-3.329h-3.752v3.329
		c0,0.194,0.005,0.374,0.017,0.54s0.033,0.302,0.066,0.407s0.082,0.194,0.145,0.266c0.064,0.072,0.151,0.134,0.262,0.187
		c0.111,0.052,0.246,0.098,0.407,0.137v0.548h-4.358v-0.548c0.205-0.055,0.367-0.115,0.485-0.179
		c0.119-0.063,0.208-0.152,0.266-0.266c0.059-0.113,0.096-0.257,0.112-0.432c0.017-0.174,0.025-0.394,0.025-0.66v-7.155
		c0-0.26-0.007-0.479-0.021-0.656c-0.014-0.177-0.05-0.321-0.107-0.432c-0.059-0.111-0.147-0.201-0.266-0.27
		c-0.119-0.069-0.284-0.132-0.494-0.187v-0.548h4.358v0.548c-0.293,0.083-0.494,0.174-0.602,0.274
		c-0.107,0.1-0.184,0.231-0.228,0.395c-0.044,0.163-0.066,0.458-0.066,0.884v2.772h3.752v-2.772c0-0.42-0.018-0.712-0.054-0.876
		c-0.036-0.163-0.107-0.296-0.216-0.398c-0.107-0.102-0.311-0.195-0.61-0.278v-0.548h4.333v0.548
		c-0.244,0.066-0.42,0.137-0.531,0.211c-0.111,0.075-0.189,0.17-0.237,0.287c-0.047,0.116-0.077,0.246-0.091,0.39
		c-0.014,0.144-0.021,0.365-0.021,0.664V41.318z"/>
	<path d="M242.57,43.534c-1.627,0-2.849-0.476-3.665-1.428c-0.816-0.952-1.225-2.377-1.225-4.275c0-1.245,0.198-2.309,0.594-3.192
		c0.396-0.882,0.978-1.553,1.747-2.013s1.685-0.689,2.748-0.689c1.655,0,2.897,0.475,3.727,1.423
		c0.83,0.949,1.245,2.359,1.245,4.229c0,1.046-0.123,1.944-0.369,2.693c-0.247,0.75-0.597,1.366-1.05,1.847
		s-0.998,0.835-1.631,1.063C244.058,43.421,243.351,43.534,242.57,43.534z M240.321,37.607c0,1.671,0.201,2.915,0.602,3.731
		c0.401,0.816,1.014,1.224,1.839,1.224c0.426,0,0.789-0.115,1.087-0.344c0.299-0.23,0.541-0.551,0.726-0.963
		c0.186-0.413,0.318-0.901,0.398-1.465c0.081-0.564,0.121-1.184,0.121-1.859c0-1.101-0.087-2.024-0.261-2.768
		c-0.175-0.745-0.438-1.306-0.789-1.686c-0.351-0.379-0.801-0.568-1.349-0.568c-0.802,0-1.398,0.383-1.789,1.149
		C240.516,34.825,240.321,36.008,240.321,37.607z"/>
	<path d="M259.371,41.318c0,0.559,0.048,0.931,0.145,1.117c0.097,0.185,0.342,0.325,0.735,0.419v0.548h-4.333v-0.548
		c0.398-0.094,0.645-0.223,0.739-0.386c0.094-0.164,0.141-0.547,0.141-1.15v-3.246c0-0.979,0.025-1.724,0.075-2.233h-0.05
		l-3.943,5.479c0,0.548,0.051,0.917,0.154,1.108c0.102,0.191,0.35,0.333,0.743,0.428v0.548h-4.358v-0.548
		c0.382-0.094,0.625-0.234,0.73-0.419c0.105-0.186,0.158-0.558,0.158-1.117v-7.155c0-0.57-0.05-0.943-0.149-1.121
		s-0.346-0.318-0.739-0.423v-0.548h4.358v0.548c-0.393,0.111-0.641,0.257-0.743,0.44c-0.103,0.183-0.154,0.553-0.154,1.112v3.652
		c0,0.692-0.02,1.237-0.058,1.635h0.05l3.926-5.487c0-0.465-0.05-0.782-0.149-0.95c-0.1-0.169-0.343-0.303-0.73-0.403v-0.548h4.333
		v0.548c-0.387,0.105-0.631,0.248-0.73,0.427c-0.1,0.18-0.149,0.555-0.149,1.125V41.318z M257.802,29.024
		c0,0.62-0.274,1.103-0.822,1.448c-0.548,0.346-1.281,0.519-2.2,0.519c-1.959,0-2.938-0.656-2.938-1.967v-0.506h1.693v0.432
		c0,0.83,0.42,1.245,1.262,1.245c0.481,0,0.819-0.103,1.013-0.307s0.291-0.518,0.291-0.938v-0.432h1.702V29.024z"/>
	<path d="M276.014,32.619c-0.387,0.105-0.631,0.248-0.73,0.427c-0.1,0.18-0.149,0.555-0.149,1.125v7.147
		c0,0.559,0.048,0.931,0.145,1.117c0.097,0.185,0.342,0.325,0.735,0.419v0.548h-4.333v-0.548c0.398-0.094,0.645-0.223,0.739-0.386
		c0.094-0.164,0.141-0.547,0.141-1.15v-8.201h-3.503v8.201c0,0.548,0.051,0.917,0.154,1.108c0.102,0.191,0.35,0.333,0.743,0.428
		v0.548h-4.358v-0.548c0.382-0.094,0.625-0.234,0.73-0.419c0.105-0.186,0.158-0.558,0.158-1.117v-7.155
		c0-0.57-0.05-0.943-0.149-1.121s-0.346-0.318-0.739-0.423v-0.548h10.417V32.619z"/>
	<path d="M282.588,43.534c-1.627,0-2.849-0.476-3.665-1.428c-0.816-0.952-1.225-2.377-1.225-4.275c0-1.245,0.198-2.309,0.594-3.192
		c0.396-0.882,0.978-1.553,1.747-2.013s1.685-0.689,2.748-0.689c1.655,0,2.897,0.475,3.727,1.423
		c0.83,0.949,1.245,2.359,1.245,4.229c0,1.046-0.123,1.944-0.369,2.693c-0.247,0.75-0.597,1.366-1.05,1.847
		s-0.998,0.835-1.631,1.063C284.076,43.421,283.369,43.534,282.588,43.534z M280.339,37.607c0,1.671,0.201,2.915,0.602,3.731
		c0.401,0.816,1.014,1.224,1.839,1.224c0.426,0,0.789-0.115,1.087-0.344c0.299-0.23,0.541-0.551,0.726-0.963
		c0.186-0.413,0.318-0.901,0.398-1.465c0.081-0.564,0.121-1.184,0.121-1.859c0-1.101-0.087-2.024-0.261-2.768
		c-0.175-0.745-0.438-1.306-0.789-1.686c-0.351-0.379-0.801-0.568-1.349-0.568c-0.802,0-1.398,0.383-1.789,1.149
		C280.534,34.825,280.339,36.008,280.339,37.607z"/>
	<path d="M299.115,43.401h-4.54v-0.548c0.47-0.111,0.755-0.274,0.855-0.49s0.149-0.609,0.149-1.179v-8.126h-1.834
		c-0.111,1.284-0.322,2.665-0.635,4.142c-0.313,1.478-0.657,2.721-1.033,3.731c-0.376,1.01-0.775,1.696-1.195,2.059
		c-0.42,0.363-0.958,0.544-1.61,0.544c-0.503,0-0.963-0.066-1.378-0.199v-2.009h1.063c0.078,0.487,0.288,0.73,0.631,0.73
		c0.271,0,0.528-0.12,0.772-0.361c0.244-0.24,0.518-0.821,0.822-1.743c0.304-0.921,0.589-2.042,0.855-3.361
		c0.266-1.32,0.398-2.279,0.398-2.876c0-0.41-0.062-0.685-0.187-0.826c-0.124-0.142-0.341-0.231-0.651-0.27v-0.548h7.52v0.548
		c-0.393,0.1-0.651,0.227-0.776,0.382c-0.124,0.155-0.187,0.581-0.187,1.278v6.906c0,0.659,0.059,1.076,0.175,1.253
		s0.379,0.315,0.788,0.415V43.401z"/>
	<path d="M310.669,41.318c0,0.559,0.049,0.931,0.146,1.117c0.097,0.185,0.342,0.325,0.734,0.419v0.548h-4.333v-0.548
		c0.398-0.094,0.645-0.223,0.739-0.386c0.094-0.164,0.141-0.547,0.141-1.15v-3.246c0-0.979,0.025-1.724,0.075-2.233h-0.05
		l-3.943,5.479c0,0.548,0.052,0.917,0.154,1.108c0.102,0.191,0.35,0.333,0.742,0.428v0.548h-4.357v-0.548
		c0.382-0.094,0.625-0.234,0.73-0.419c0.104-0.186,0.157-0.558,0.157-1.117v-7.155c0-0.57-0.05-0.943-0.149-1.121
		s-0.346-0.318-0.738-0.423v-0.548h4.357v0.548c-0.393,0.111-0.641,0.257-0.742,0.44c-0.103,0.183-0.154,0.553-0.154,1.112v3.652
		c0,0.692-0.02,1.237-0.058,1.635h0.05l3.926-5.487c0-0.465-0.05-0.782-0.149-0.95c-0.1-0.169-0.343-0.303-0.73-0.403v-0.548h4.333
		v0.548c-0.387,0.105-0.631,0.248-0.73,0.427c-0.1,0.18-0.149,0.555-0.149,1.125V41.318z"/>
	<path d="M315.5,43.401v-0.548c0.232-0.039,0.417-0.09,0.553-0.153c0.135-0.064,0.236-0.154,0.303-0.27s0.107-0.264,0.124-0.444
		c0.017-0.18,0.025-0.403,0.025-0.668v-8.276h-0.673c-0.332,0-0.586,0.039-0.764,0.116c-0.177,0.078-0.33,0.199-0.46,0.365
		c-0.131,0.166-0.242,0.389-0.337,0.668c-0.094,0.28-0.171,0.544-0.232,0.793h-1.137v-2.914h9.77v2.914h-1.137
		c-0.105-0.376-0.188-0.653-0.249-0.83c-0.062-0.177-0.129-0.328-0.203-0.452c-0.075-0.125-0.154-0.229-0.237-0.312
		s-0.171-0.149-0.266-0.199c-0.094-0.05-0.211-0.087-0.353-0.112c-0.141-0.024-0.325-0.037-0.552-0.037h-0.598v8.276
		c0,0.293,0.008,0.516,0.024,0.668c0.017,0.152,0.047,0.275,0.092,0.369c0.044,0.094,0.098,0.17,0.162,0.229
		c0.063,0.058,0.151,0.11,0.266,0.157c0.113,0.047,0.267,0.084,0.46,0.112v0.548H315.5z"/>
	<path d="M333.97,41.318c0,0.559,0.048,0.931,0.145,1.117c0.098,0.185,0.342,0.325,0.735,0.419v0.548h-4.333v-0.548
		c0.398-0.094,0.645-0.223,0.738-0.386c0.095-0.164,0.142-0.547,0.142-1.15v-3.246c0-0.979,0.024-1.724,0.074-2.233h-0.05
		l-3.942,5.479c0,0.548,0.051,0.917,0.153,1.108c0.103,0.191,0.35,0.333,0.743,0.428v0.548h-4.358v-0.548
		c0.382-0.094,0.626-0.234,0.73-0.419c0.105-0.186,0.158-0.558,0.158-1.117v-7.155c0-0.57-0.05-0.943-0.149-1.121
		s-0.346-0.318-0.739-0.423v-0.548h4.358v0.548c-0.394,0.111-0.641,0.257-0.743,0.44s-0.153,0.553-0.153,1.112v3.652
		c0,0.692-0.02,1.237-0.059,1.635h0.05l3.927-5.487c0-0.465-0.05-0.782-0.149-0.95c-0.1-0.169-0.344-0.303-0.73-0.403v-0.548h4.333
		v0.548c-0.388,0.105-0.631,0.248-0.73,0.427c-0.1,0.18-0.149,0.555-0.149,1.125V41.318z"/>
	<path d="M343.35,43.401v-0.415c-0.078-0.177-0.279-0.722-0.606-1.635c-0.382-1.079-0.664-1.814-0.847-2.204
		c-0.183-0.391-0.406-0.675-0.672-0.855c-0.266-0.18-0.647-0.27-1.146-0.27h-0.166v3.295c0,0.548,0.051,0.917,0.153,1.108
		c0.103,0.191,0.35,0.333,0.743,0.428v0.548h-4.358v-0.548c0.382-0.094,0.626-0.234,0.73-0.419c0.105-0.186,0.158-0.558,0.158-1.117
		v-7.155c0-0.57-0.05-0.943-0.149-1.121s-0.346-0.318-0.739-0.423v-0.548h4.358v0.548c-0.388,0.105-0.634,0.249-0.739,0.432
		c-0.104,0.183-0.157,0.553-0.157,1.112v2.955h0.174c0.67,0,1.181-0.195,1.531-0.585c0.352-0.39,0.646-0.939,0.885-1.647
		c0.287-0.869,0.552-1.483,0.792-1.843c0.241-0.36,0.544-0.634,0.909-0.822s0.842-0.282,1.428-0.282
		c0.454,0,0.853,0.063,1.195,0.191v2.05h-1.17c-0.062-0.503-0.282-0.755-0.664-0.755c-0.288,0-0.533,0.152-0.735,0.457
		c-0.201,0.304-0.413,0.739-0.635,1.303c-0.354,0.935-0.847,1.577-1.478,1.926v0.083c0.576,0.066,1.036,0.214,1.382,0.444
		c0.347,0.229,0.612,0.502,0.797,0.817c0.186,0.315,0.473,0.938,0.859,1.868c0.46,1.112,0.776,1.798,0.95,2.059
		c0.175,0.26,0.458,0.418,0.852,0.473v0.548H343.35z"/>
	<path d="M357.861,41.318c0,0.559,0.047,0.931,0.145,1.117c0.096,0.185,0.342,0.325,0.734,0.419v0.548h-4.333v-0.548
		c0.398-0.094,0.645-0.223,0.738-0.386c0.095-0.164,0.142-0.547,0.142-1.15v-3.246c0-0.979,0.024-1.724,0.074-2.233h-0.05
		l-3.942,5.479c0,0.548,0.051,0.917,0.153,1.108c0.103,0.191,0.35,0.333,0.743,0.428v0.548h-4.358v-0.548
		c0.382-0.094,0.626-0.234,0.73-0.419c0.105-0.186,0.158-0.558,0.158-1.117v-7.155c0-0.57-0.05-0.943-0.149-1.121
		s-0.346-0.318-0.739-0.423v-0.548h4.358v0.548c-0.394,0.111-0.641,0.257-0.743,0.44s-0.153,0.553-0.153,1.112v3.652
		c0,0.692-0.02,1.237-0.059,1.635h0.05l3.927-5.487c0-0.465-0.05-0.782-0.149-0.95c-0.1-0.169-0.344-0.303-0.73-0.403v-0.548h4.333
		v0.548c-0.387,0.105-0.631,0.248-0.73,0.427c-0.1,0.18-0.148,0.555-0.148,1.125V41.318z"/>
	<path d="M374.039,41.318c0,0.559,0.048,0.931,0.145,1.117c0.097,0.185,0.342,0.325,0.734,0.419v0.548h-4.332v-0.548
		c0.398-0.094,0.645-0.223,0.738-0.386c0.094-0.164,0.141-0.547,0.141-1.15v-3.246c0-0.979,0.025-1.724,0.075-2.233h-0.05
		l-3.943,5.479c0,0.548,0.052,0.917,0.154,1.108c0.103,0.191,0.35,0.333,0.742,0.428v0.548h-4.357v-0.548
		c0.382-0.094,0.625-0.234,0.73-0.419c0.105-0.186,0.158-0.558,0.158-1.117v-7.155c0-0.57-0.051-0.943-0.15-1.121
		s-0.346-0.318-0.738-0.423v-0.548h4.357v0.548c-0.393,0.111-0.64,0.257-0.742,0.44s-0.154,0.553-0.154,1.112v3.652
		c0,0.692-0.019,1.237-0.058,1.635h0.05l3.926-5.487c0-0.465-0.049-0.782-0.148-0.95c-0.1-0.169-0.344-0.303-0.73-0.403v-0.548
		h4.332v0.548c-0.387,0.105-0.631,0.248-0.73,0.427c-0.1,0.18-0.148,0.555-0.148,1.125V41.318z"/>
	<path d="M107.467,61.318c0,0.559,0.048,0.931,0.145,1.117c0.097,0.185,0.342,0.325,0.735,0.419v0.548h-4.333v-0.548
		c0.398-0.094,0.645-0.223,0.739-0.386c0.094-0.164,0.141-0.547,0.141-1.15v-3.246c0-0.979,0.025-1.724,0.075-2.233h-0.05
		l-3.943,5.479c0,0.548,0.051,0.917,0.154,1.108c0.102,0.191,0.35,0.333,0.743,0.428v0.548h-4.358v-0.548
		c0.382-0.094,0.625-0.234,0.73-0.419c0.105-0.186,0.158-0.558,0.158-1.117v-7.155c0-0.57-0.05-0.943-0.149-1.121
		s-0.346-0.318-0.739-0.423v-0.548h4.358v0.548c-0.393,0.111-0.641,0.257-0.743,0.44c-0.103,0.183-0.154,0.553-0.154,1.112v3.652
		c0,0.692-0.02,1.237-0.058,1.635h0.05l3.926-5.487c0-0.465-0.05-0.782-0.149-0.95c-0.1-0.169-0.343-0.303-0.73-0.403v-0.548h4.333
		v0.548c-0.387,0.105-0.631,0.248-0.73,0.427c-0.1,0.18-0.149,0.555-0.149,1.125V61.318z"/>
	<path d="M119.735,61.318c0,0.426,0.018,0.718,0.054,0.875c0.036,0.158,0.109,0.29,0.22,0.395s0.313,0.194,0.606,0.266v0.548h-4.333
		v-0.548c0.321-0.083,0.528-0.166,0.623-0.249s0.161-0.201,0.199-0.353c0.039-0.152,0.058-0.464,0.058-0.934v-3.329h-3.752v3.329
		c0,0.194,0.005,0.374,0.017,0.54s0.033,0.302,0.066,0.407s0.082,0.194,0.145,0.266c0.064,0.072,0.151,0.134,0.262,0.187
		c0.111,0.052,0.246,0.098,0.407,0.137v0.548h-4.358v-0.548c0.205-0.055,0.367-0.115,0.485-0.179
		c0.119-0.063,0.208-0.152,0.266-0.266c0.059-0.113,0.096-0.257,0.112-0.432c0.017-0.174,0.025-0.394,0.025-0.66v-7.155
		c0-0.26-0.007-0.479-0.021-0.656c-0.014-0.177-0.05-0.321-0.107-0.432c-0.059-0.111-0.147-0.201-0.266-0.27
		c-0.119-0.069-0.284-0.132-0.494-0.187v-0.548h4.358v0.548c-0.293,0.083-0.494,0.174-0.602,0.274
		c-0.107,0.1-0.184,0.231-0.228,0.395c-0.044,0.163-0.066,0.458-0.066,0.884v2.772h3.752v-2.772c0-0.42-0.018-0.712-0.054-0.876
		c-0.036-0.163-0.107-0.296-0.216-0.398c-0.107-0.102-0.311-0.195-0.61-0.278v-0.548h4.333v0.548
		c-0.244,0.066-0.42,0.137-0.531,0.211c-0.111,0.075-0.189,0.17-0.237,0.287c-0.047,0.116-0.077,0.246-0.091,0.39
		c-0.014,0.144-0.021,0.365-0.021,0.664V61.318z"/>
	<path d="M125.994,52.37v-0.548h4.358v0.548c-0.382,0.094-0.625,0.227-0.73,0.398s-0.158,0.495-0.158,0.971
		c3.149,0.022,4.723,1.273,4.723,3.752c0,2.551-1.574,3.857-4.723,3.918c0,0.515,0.053,0.86,0.158,1.038s0.349,0.313,0.73,0.407
		v0.548h-4.358v-0.548c0.354-0.083,0.591-0.208,0.709-0.374c0.119-0.166,0.182-0.523,0.187-1.071c-1.527,0-2.705-0.317-3.532-0.95
		c-0.828-0.634-1.241-1.573-1.241-2.818c0-1.229,0.411-2.18,1.232-2.855c0.822-0.675,2.002-1.024,3.541-1.046
		c-0.005-0.515-0.073-0.851-0.204-1.009C126.557,52.573,126.326,52.453,125.994,52.37z M126.891,60.521v-5.877
		c-1.444,0.116-2.167,1.054-2.167,2.814c0,0.918,0.189,1.644,0.568,2.175C125.672,60.164,126.205,60.46,126.891,60.521z
		 M129.464,54.644v5.877c0.669-0.055,1.191-0.335,1.565-0.838c0.373-0.503,0.56-1.157,0.56-1.959
		C131.589,55.82,130.88,54.793,129.464,54.644z"/>
	<path d="M140.653,63.534c-1.627,0-2.849-0.476-3.665-1.428c-0.816-0.952-1.225-2.377-1.225-4.275c0-1.245,0.198-2.309,0.594-3.192
		c0.396-0.882,0.978-1.553,1.747-2.013s1.685-0.689,2.748-0.689c1.655,0,2.897,0.475,3.727,1.423
		c0.83,0.949,1.245,2.359,1.245,4.229c0,1.046-0.123,1.944-0.369,2.693c-0.247,0.75-0.597,1.366-1.05,1.847
		s-0.998,0.835-1.631,1.063C142.141,63.421,141.434,63.534,140.653,63.534z M138.404,57.607c0,1.671,0.201,2.915,0.602,3.731
		c0.401,0.816,1.014,1.224,1.839,1.224c0.426,0,0.789-0.115,1.087-0.344c0.299-0.23,0.541-0.551,0.726-0.963
		c0.186-0.413,0.318-0.901,0.398-1.465c0.081-0.564,0.121-1.184,0.121-1.859c0-1.101-0.087-2.024-0.261-2.768
		c-0.175-0.745-0.438-1.306-0.789-1.686c-0.351-0.379-0.801-0.568-1.349-0.568c-0.802,0-1.398,0.383-1.789,1.149
		C138.599,54.825,138.404,56.008,138.404,57.607z"/>
	<path d="M150.963,61.326c0,0.365,0.014,0.624,0.042,0.776c0.028,0.152,0.073,0.273,0.137,0.365
		c0.064,0.091,0.155,0.167,0.274,0.228c0.119,0.061,0.303,0.113,0.552,0.158v0.548h-4.466v-0.548
		c0.205-0.055,0.367-0.115,0.485-0.179c0.119-0.063,0.208-0.152,0.266-0.266c0.059-0.113,0.096-0.257,0.112-0.432
		c0.017-0.174,0.025-0.394,0.025-0.66v-7.155c0-0.26-0.007-0.479-0.021-0.656c-0.014-0.177-0.05-0.321-0.107-0.432
		c-0.059-0.111-0.147-0.201-0.266-0.27c-0.119-0.069-0.284-0.132-0.494-0.187v-0.548h4.823c1.4,0,2.449,0.25,3.146,0.751
		c0.697,0.5,1.046,1.271,1.046,2.312c0,0.736-0.163,1.375-0.49,1.917s-0.8,0.953-1.419,1.233c-0.62,0.279-1.395,0.419-2.324,0.419
		c-0.537,0-0.977-0.011-1.32-0.033V61.326z M150.963,57.732h0.714c0.553,0,0.993-0.079,1.32-0.237
		c0.327-0.157,0.568-0.408,0.727-0.751c0.157-0.343,0.236-0.805,0.236-1.386c0-0.576-0.079-1.034-0.236-1.374
		c-0.158-0.341-0.389-0.583-0.693-0.727s-0.694-0.216-1.17-0.216c-0.387,0-0.686,0.005-0.896,0.017V57.732z"/>
	<path d="M170.719,52.619c-0.293,0.083-0.493,0.173-0.598,0.27c-0.105,0.097-0.179,0.227-0.22,0.39
		c-0.042,0.164-0.063,0.453-0.063,0.868v7.18c0,0.337,0.017,0.604,0.05,0.801c0.033,0.197,0.101,0.346,0.203,0.448
		c0.103,0.103,0.312,0.195,0.627,0.278v0.548h-4.258v-0.548c0.244-0.066,0.412-0.125,0.506-0.174s0.167-0.115,0.22-0.195
		c0.053-0.081,0.092-0.202,0.116-0.365c0.025-0.164,0.038-0.433,0.038-0.81v-4.067c0-0.448,0.008-0.977,0.025-1.585
		s0.033-1.041,0.05-1.295h-0.174c-0.066,0.221-0.137,0.438-0.211,0.652c-0.075,0.213-0.215,0.593-0.419,1.141l-2.225,5.993h-1.461
		l-2.341-6.732c-0.138-0.382-0.26-0.761-0.365-1.137h-0.149c0.055,0.913,0.083,1.992,0.083,3.237v3.818
		c0,0.41,0.02,0.694,0.058,0.855s0.116,0.293,0.232,0.398s0.318,0.194,0.606,0.266v0.548h-3.138v-0.548
		c0.205-0.055,0.367-0.116,0.486-0.183c0.119-0.066,0.208-0.155,0.27-0.266s0.098-0.252,0.112-0.423
		c0.014-0.171,0.021-0.39,0.021-0.656v-7.18c0-0.42-0.018-0.708-0.054-0.863c-0.036-0.155-0.107-0.282-0.212-0.382
		s-0.313-0.194-0.623-0.282v-0.548h4.125l2.299,6.815l2.49-6.815h3.893V52.619z"/>
	<path d="M178.223,59.89h-3.544l-0.274,0.789c-0.078,0.221-0.141,0.436-0.191,0.644c-0.05,0.207-0.075,0.427-0.075,0.66
		c0,0.542,0.288,0.833,0.863,0.872v0.548h-3.544v-0.548c0.205-0.022,0.385-0.094,0.54-0.216s0.296-0.288,0.423-0.498
		s0.263-0.512,0.407-0.905l3.461-9.222h2.216l2.739,9.297c0.122,0.415,0.224,0.71,0.307,0.884c0.083,0.175,0.191,0.315,0.324,0.424
		c0.133,0.107,0.318,0.187,0.556,0.236v0.548h-4.582v-0.548c0.288-0.033,0.501-0.113,0.639-0.241s0.208-0.307,0.208-0.54
		c0-0.171-0.02-0.362-0.058-0.573s-0.103-0.476-0.191-0.797L178.223,59.89z M174.994,58.919h2.988l-1.328-4.673L174.994,58.919z"/>
	<path d="M192.94,62.355h1.486v4.042h-1.104c-0.194-1.25-0.417-2.063-0.668-2.436c-0.251-0.374-0.618-0.561-1.1-0.561h-8.209v-0.548
		c0.398-0.105,0.649-0.249,0.751-0.432c0.102-0.183,0.153-0.556,0.153-1.121v-7.139c0-0.564-0.051-0.938-0.153-1.121
		c-0.103-0.183-0.353-0.321-0.751-0.415v-0.548h4.449v0.548c-0.398,0.094-0.645,0.223-0.739,0.386
		c-0.094,0.164-0.141,0.547-0.141,1.15v8.185h3.428v-8.185c0-0.548-0.051-0.917-0.153-1.108c-0.103-0.191-0.35-0.333-0.743-0.428
		v-0.548h4.383v0.548c-0.382,0.094-0.625,0.234-0.73,0.419c-0.105,0.186-0.158,0.558-0.158,1.117V62.355z"/>
	<path d="M205.599,61.318c0,0.559,0.048,0.931,0.145,1.117c0.097,0.185,0.342,0.325,0.735,0.419v0.548h-4.333v-0.548
		c0.398-0.094,0.645-0.223,0.739-0.386c0.094-0.164,0.141-0.547,0.141-1.15v-3.246c0-0.979,0.025-1.724,0.075-2.233h-0.05
		l-3.943,5.479c0,0.548,0.051,0.917,0.154,1.108c0.102,0.191,0.35,0.333,0.743,0.428v0.548h-4.358v-0.548
		c0.382-0.094,0.625-0.234,0.73-0.419c0.105-0.186,0.158-0.558,0.158-1.117v-7.155c0-0.57-0.05-0.943-0.149-1.121
		s-0.346-0.318-0.739-0.423v-0.548h4.358v0.548c-0.393,0.111-0.641,0.257-0.743,0.44c-0.103,0.183-0.154,0.553-0.154,1.112v3.652
		c0,0.692-0.02,1.237-0.058,1.635h0.05l3.926-5.487c0-0.465-0.05-0.782-0.149-0.95c-0.1-0.169-0.343-0.303-0.73-0.403v-0.548h4.333
		v0.548c-0.387,0.105-0.631,0.248-0.73,0.427c-0.1,0.18-0.149,0.555-0.149,1.125V61.318z"/>
	<path d="M213.053,63.534c-1.627,0-2.849-0.476-3.665-1.428c-0.816-0.952-1.225-2.377-1.225-4.275c0-1.245,0.198-2.309,0.594-3.192
		c0.396-0.882,0.978-1.553,1.747-2.013s1.685-0.689,2.748-0.689c1.655,0,2.897,0.475,3.727,1.423
		c0.83,0.949,1.245,2.359,1.245,4.229c0,1.046-0.123,1.944-0.369,2.693c-0.247,0.75-0.597,1.366-1.05,1.847
		s-0.998,0.835-1.631,1.063C214.54,63.421,213.833,63.534,213.053,63.534z M210.803,57.607c0,1.671,0.201,2.915,0.602,3.731
		c0.401,0.816,1.014,1.224,1.839,1.224c0.426,0,0.789-0.115,1.087-0.344c0.299-0.23,0.541-0.551,0.726-0.963
		c0.186-0.413,0.318-0.901,0.398-1.465c0.081-0.564,0.121-1.184,0.121-1.859c0-1.101-0.087-2.024-0.261-2.768
		c-0.175-0.745-0.438-1.306-0.789-1.686c-0.351-0.379-0.801-0.568-1.349-0.568c-0.802,0-1.398,0.383-1.789,1.149
		C210.999,54.825,210.803,56.008,210.803,57.607z"/>
	<path d="M229.688,61.318c0,0.426,0.018,0.718,0.054,0.875c0.036,0.158,0.109,0.29,0.22,0.395s0.313,0.194,0.606,0.266v0.548h-4.333
		v-0.548c0.321-0.083,0.528-0.166,0.623-0.249s0.161-0.201,0.199-0.353c0.039-0.152,0.058-0.464,0.058-0.934v-3.329h-3.752v3.329
		c0,0.194,0.005,0.374,0.017,0.54s0.033,0.302,0.066,0.407s0.082,0.194,0.145,0.266c0.064,0.072,0.151,0.134,0.262,0.187
		c0.111,0.052,0.246,0.098,0.407,0.137v0.548h-4.358v-0.548c0.205-0.055,0.367-0.115,0.485-0.179
		c0.119-0.063,0.208-0.152,0.266-0.266c0.059-0.113,0.096-0.257,0.112-0.432c0.017-0.174,0.025-0.394,0.025-0.66v-7.155
		c0-0.26-0.007-0.479-0.021-0.656c-0.014-0.177-0.05-0.321-0.107-0.432c-0.059-0.111-0.147-0.201-0.266-0.27
		c-0.119-0.069-0.284-0.132-0.494-0.187v-0.548h4.358v0.548c-0.293,0.083-0.494,0.174-0.602,0.274
		c-0.107,0.1-0.184,0.231-0.228,0.395c-0.044,0.163-0.066,0.458-0.066,0.884v2.772h3.752v-2.772c0-0.42-0.018-0.712-0.054-0.876
		c-0.036-0.163-0.107-0.296-0.216-0.398c-0.107-0.102-0.311-0.195-0.61-0.278v-0.548h4.333v0.548
		c-0.244,0.066-0.42,0.137-0.531,0.211c-0.111,0.075-0.189,0.17-0.237,0.287c-0.047,0.116-0.077,0.246-0.091,0.39
		c-0.014,0.144-0.021,0.365-0.021,0.664V61.318z"/>
	<path d="M241.956,61.318c0,0.426,0.018,0.718,0.054,0.875c0.036,0.158,0.109,0.29,0.22,0.395s0.313,0.194,0.606,0.266v0.548h-4.333
		v-0.548c0.321-0.083,0.528-0.166,0.623-0.249s0.161-0.201,0.199-0.353c0.039-0.152,0.058-0.464,0.058-0.934v-3.329h-3.752v3.329
		c0,0.194,0.005,0.374,0.017,0.54s0.033,0.302,0.066,0.407s0.082,0.194,0.145,0.266c0.064,0.072,0.151,0.134,0.262,0.187
		c0.111,0.052,0.246,0.098,0.407,0.137v0.548h-4.358v-0.548c0.205-0.055,0.367-0.115,0.485-0.179
		c0.119-0.063,0.208-0.152,0.266-0.266c0.059-0.113,0.096-0.257,0.112-0.432c0.017-0.174,0.025-0.394,0.025-0.66v-7.155
		c0-0.26-0.007-0.479-0.021-0.656c-0.014-0.177-0.05-0.321-0.107-0.432c-0.059-0.111-0.147-0.201-0.266-0.27
		c-0.119-0.069-0.284-0.132-0.494-0.187v-0.548h4.358v0.548c-0.293,0.083-0.494,0.174-0.602,0.274
		c-0.107,0.1-0.184,0.231-0.228,0.395c-0.044,0.163-0.066,0.458-0.066,0.884v2.772h3.752v-2.772c0-0.42-0.018-0.712-0.054-0.876
		c-0.036-0.163-0.107-0.296-0.216-0.398c-0.107-0.102-0.311-0.195-0.61-0.278v-0.548h4.333v0.548
		c-0.244,0.066-0.42,0.137-0.531,0.211c-0.111,0.075-0.189,0.17-0.237,0.287c-0.047,0.116-0.077,0.246-0.091,0.39
		c-0.014,0.144-0.021,0.365-0.021,0.664V61.318z"/>
	<path d="M248.912,52.071v0.548c-0.426,0.066-0.702,0.196-0.826,0.39c-0.125,0.194-0.187,0.578-0.187,1.154v2.723
		c0.736-0.072,1.348-0.108,1.834-0.108c1.389,0,2.414,0.27,3.075,0.81c0.662,0.539,0.992,1.379,0.992,2.519
		c0,2.197-1.444,3.295-4.333,3.295h-5.03v-0.548c0.382-0.094,0.625-0.234,0.73-0.419c0.105-0.186,0.158-0.558,0.158-1.117v-7.155
		c0-0.57-0.05-0.943-0.149-1.121s-0.346-0.318-0.739-0.423v-0.548H248.912z M247.899,57.89v4.516c1.345,0.1,2.237-0.05,2.677-0.448
		c0.439-0.398,0.66-1.004,0.66-1.818c0-0.725-0.17-1.29-0.51-1.693c-0.341-0.404-0.959-0.606-1.855-0.606
		C248.577,57.84,248.253,57.856,247.899,57.89z M257.927,54.163v7.155c0,0.553,0.053,0.924,0.158,1.112s0.352,0.329,0.739,0.423
		v0.548h-4.358v-0.548c0.387-0.094,0.632-0.234,0.734-0.419c0.103-0.186,0.154-0.558,0.154-1.117v-7.164
		c0-0.564-0.05-0.935-0.149-1.112s-0.346-0.318-0.739-0.423v-0.548h4.358v0.548c-0.393,0.111-0.641,0.256-0.743,0.436
		C257.978,53.234,257.927,53.603,257.927,54.163z"/>
	<path d="M264.717,52.071v0.548c-0.26,0.028-0.444,0.087-0.552,0.178c-0.108,0.092-0.162,0.231-0.162,0.419
		c0,0.094,0.02,0.201,0.058,0.32c0.039,0.119,0.103,0.261,0.191,0.427s0.238,0.426,0.448,0.78l0.772,1.287l1.004-1.478
		c0.221-0.327,0.369-0.577,0.444-0.751c0.074-0.175,0.112-0.361,0.112-0.561c0-0.177-0.061-0.319-0.183-0.428
		c-0.122-0.107-0.291-0.173-0.506-0.195v-0.548h3.428v0.556c-0.161,0.044-0.313,0.115-0.457,0.212
		c-0.144,0.097-0.31,0.257-0.498,0.481c-0.188,0.224-0.49,0.632-0.905,1.224l-1.793,2.557l2.706,4.466
		c0.094,0.149,0.189,0.297,0.287,0.444c0.097,0.147,0.19,0.277,0.282,0.391c0.091,0.113,0.171,0.198,0.24,0.253
		c0.069,0.055,0.137,0.098,0.204,0.129c0.066,0.03,0.136,0.054,0.208,0.07v0.548h-4.615v-0.548c0.244-0.028,0.423-0.086,0.54-0.174
		s0.174-0.229,0.174-0.423c0-0.066-0.01-0.138-0.029-0.216c-0.019-0.078-0.052-0.171-0.1-0.282
		c-0.047-0.111-0.094-0.209-0.141-0.295c-0.047-0.085-0.143-0.25-0.287-0.494l-1.154-1.901l-1.353,2
		c-0.105,0.161-0.194,0.307-0.266,0.44s-0.122,0.254-0.149,0.365s-0.042,0.241-0.042,0.39s0.06,0.279,0.179,0.39
		c0.119,0.111,0.289,0.177,0.51,0.199v0.548h-3.437v-0.548c0.183-0.055,0.35-0.14,0.502-0.253c0.152-0.114,0.318-0.278,0.498-0.494
		c0.18-0.216,0.427-0.551,0.743-1.004l2.167-3.104l-2.092-3.478c-0.227-0.376-0.422-0.689-0.585-0.938
		c-0.164-0.249-0.3-0.438-0.411-0.569c-0.111-0.13-0.209-0.223-0.295-0.278c-0.085-0.055-0.187-0.094-0.303-0.116v-0.548H264.717z"
		/>
	<path d="M277.11,63.401v-0.548c0.232-0.039,0.417-0.09,0.552-0.153c0.135-0.064,0.236-0.154,0.303-0.27s0.108-0.264,0.125-0.444
		c0.017-0.18,0.025-0.403,0.025-0.668v-8.276h-0.672c-0.332,0-0.586,0.039-0.764,0.116s-0.331,0.199-0.46,0.365
		c-0.13,0.166-0.242,0.389-0.336,0.668c-0.094,0.28-0.171,0.544-0.232,0.793h-1.137v-2.914h9.77v2.914h-1.137
		c-0.105-0.376-0.188-0.653-0.249-0.83s-0.129-0.328-0.203-0.452c-0.075-0.125-0.154-0.229-0.237-0.312s-0.171-0.149-0.266-0.199
		s-0.211-0.087-0.353-0.112c-0.141-0.024-0.325-0.037-0.552-0.037h-0.598v8.276c0,0.293,0.008,0.516,0.025,0.668
		c0.017,0.152,0.047,0.275,0.091,0.369s0.098,0.17,0.162,0.229c0.063,0.058,0.152,0.11,0.266,0.157
		c0.113,0.047,0.267,0.084,0.46,0.112v0.548H277.11z"/>
	<path d="M293.861,52.071v2.64h-1.137c-0.183-0.526-0.337-0.881-0.465-1.067c-0.127-0.185-0.279-0.332-0.457-0.439
		c-0.177-0.108-0.479-0.162-0.905-0.162h-1.81v3.984h1.096c0.244,0,0.435-0.035,0.573-0.104c0.138-0.069,0.253-0.184,0.345-0.345
		c0.091-0.161,0.178-0.41,0.261-0.747h0.938v3.37h-0.938c-0.078-0.321-0.163-0.566-0.257-0.734c-0.094-0.169-0.206-0.29-0.336-0.361
		c-0.13-0.072-0.325-0.108-0.585-0.108h-1.096v4.433h1.801c0.194,0,0.357-0.012,0.49-0.038c0.133-0.024,0.252-0.067,0.357-0.128
		s0.206-0.144,0.303-0.249c0.097-0.105,0.183-0.219,0.258-0.34c0.074-0.122,0.153-0.282,0.236-0.481s0.174-0.473,0.274-0.822h1.137
		l-0.158,3.03h-8.16v-0.548c0.205-0.055,0.367-0.115,0.485-0.179c0.119-0.063,0.208-0.152,0.266-0.266
		c0.059-0.113,0.096-0.257,0.112-0.432c0.017-0.174,0.025-0.394,0.025-0.66v-7.155c0-0.26-0.007-0.479-0.021-0.656
		c-0.014-0.177-0.05-0.321-0.107-0.432c-0.059-0.111-0.147-0.201-0.266-0.27c-0.119-0.069-0.284-0.132-0.494-0.187v-0.548H293.861z"
		/>
	<path d="M299.663,52.071v0.548c-0.26,0.028-0.444,0.087-0.552,0.178c-0.108,0.092-0.162,0.231-0.162,0.419
		c0,0.094,0.02,0.201,0.059,0.32c0.038,0.119,0.103,0.261,0.19,0.427c0.089,0.166,0.238,0.426,0.448,0.78l0.772,1.287l1.004-1.478
		c0.222-0.327,0.369-0.577,0.444-0.751c0.074-0.175,0.112-0.361,0.112-0.561c0-0.177-0.062-0.319-0.183-0.428
		c-0.122-0.107-0.291-0.173-0.507-0.195v-0.548h3.429v0.556c-0.161,0.044-0.313,0.115-0.457,0.212
		c-0.144,0.097-0.31,0.257-0.498,0.481c-0.188,0.224-0.489,0.632-0.904,1.224l-1.793,2.557l2.706,4.466
		c0.094,0.149,0.189,0.297,0.286,0.444c0.097,0.147,0.19,0.277,0.282,0.391c0.091,0.113,0.172,0.198,0.24,0.253
		c0.069,0.055,0.138,0.098,0.204,0.129c0.066,0.03,0.136,0.054,0.207,0.07v0.548h-4.615v-0.548c0.244-0.028,0.424-0.086,0.54-0.174
		s0.174-0.229,0.174-0.423c0-0.066-0.01-0.138-0.029-0.216c-0.019-0.078-0.052-0.171-0.1-0.282
		c-0.047-0.111-0.094-0.209-0.141-0.295c-0.047-0.085-0.143-0.25-0.286-0.494l-1.154-1.901l-1.353,2
		c-0.105,0.161-0.194,0.307-0.266,0.44c-0.072,0.133-0.122,0.254-0.149,0.365c-0.028,0.111-0.042,0.241-0.042,0.39
		s0.06,0.279,0.179,0.39s0.289,0.177,0.511,0.199v0.548h-3.437v-0.548c0.183-0.055,0.35-0.14,0.502-0.253
		c0.152-0.114,0.318-0.278,0.498-0.494c0.18-0.216,0.427-0.551,0.743-1.004l2.166-3.104l-2.091-3.478
		c-0.227-0.376-0.422-0.689-0.585-0.938c-0.164-0.249-0.3-0.438-0.411-0.569c-0.111-0.13-0.209-0.223-0.295-0.278
		c-0.085-0.055-0.187-0.094-0.303-0.116v-0.548H299.663z"/>
	<path d="M315.75,61.318c0,0.426,0.019,0.718,0.055,0.875c0.035,0.158,0.108,0.29,0.22,0.395c0.11,0.105,0.313,0.194,0.605,0.266
		v0.548h-4.333v-0.548c0.321-0.083,0.528-0.166,0.623-0.249c0.094-0.083,0.16-0.201,0.199-0.353
		c0.038-0.152,0.058-0.464,0.058-0.934v-3.329h-3.752v3.329c0,0.194,0.006,0.374,0.017,0.54c0.012,0.166,0.033,0.302,0.066,0.407
		s0.082,0.194,0.146,0.266s0.15,0.134,0.262,0.187c0.11,0.052,0.246,0.098,0.406,0.137v0.548h-4.357v-0.548
		c0.204-0.055,0.366-0.115,0.485-0.179c0.119-0.063,0.208-0.152,0.266-0.266c0.059-0.113,0.096-0.257,0.112-0.432
		c0.017-0.174,0.024-0.394,0.024-0.66v-7.155c0-0.26-0.007-0.479-0.021-0.656s-0.05-0.321-0.107-0.432
		c-0.059-0.111-0.147-0.201-0.266-0.27c-0.119-0.069-0.284-0.132-0.494-0.187v-0.548h4.357v0.548
		c-0.293,0.083-0.493,0.174-0.602,0.274c-0.107,0.1-0.184,0.231-0.229,0.395c-0.044,0.163-0.066,0.458-0.066,0.884v2.772h3.752
		v-2.772c0-0.42-0.018-0.712-0.054-0.876c-0.036-0.163-0.107-0.296-0.216-0.398c-0.107-0.102-0.312-0.195-0.61-0.278v-0.548h4.333
		v0.548c-0.243,0.066-0.42,0.137-0.531,0.211c-0.11,0.075-0.189,0.17-0.236,0.287s-0.077,0.246-0.091,0.39
		c-0.015,0.144-0.021,0.365-0.021,0.664V61.318z"/>
	<path d="M323.204,63.534c-1.627,0-2.849-0.476-3.664-1.428c-0.816-0.952-1.225-2.377-1.225-4.275c0-1.245,0.197-2.309,0.594-3.192
		c0.396-0.882,0.978-1.553,1.747-2.013c0.769-0.459,1.685-0.689,2.747-0.689c1.655,0,2.897,0.475,3.728,1.423
		c0.83,0.949,1.245,2.359,1.245,4.229c0,1.046-0.123,1.944-0.369,2.693c-0.247,0.75-0.597,1.366-1.051,1.847
		c-0.453,0.481-0.997,0.835-1.631,1.063S323.984,63.534,323.204,63.534z M320.955,57.607c0,1.671,0.2,2.915,0.602,3.731
		c0.401,0.816,1.014,1.224,1.839,1.224c0.426,0,0.788-0.115,1.087-0.344c0.299-0.23,0.541-0.551,0.727-0.963
		c0.186-0.413,0.318-0.901,0.398-1.465s0.12-1.184,0.12-1.859c0-1.101-0.087-2.024-0.261-2.768
		c-0.175-0.745-0.438-1.306-0.789-1.686c-0.352-0.379-0.801-0.568-1.349-0.568c-0.803,0-1.398,0.383-1.789,1.149
		C321.15,54.825,320.955,56.008,320.955,57.607z"/>
	<path d="M339.731,63.401h-4.541v-0.548c0.471-0.111,0.756-0.274,0.855-0.49s0.149-0.609,0.149-1.179v-8.126h-1.835
		c-0.11,1.284-0.322,2.665-0.635,4.142s-0.657,2.721-1.033,3.731c-0.377,1.01-0.775,1.696-1.195,2.059
		c-0.421,0.363-0.958,0.544-1.61,0.544c-0.504,0-0.963-0.066-1.378-0.199v-2.009h1.063c0.077,0.487,0.287,0.73,0.631,0.73
		c0.271,0,0.528-0.12,0.771-0.361c0.244-0.24,0.518-0.821,0.822-1.743c0.304-0.921,0.589-2.042,0.854-3.361
		c0.266-1.32,0.398-2.279,0.398-2.876c0-0.41-0.062-0.685-0.187-0.826c-0.124-0.142-0.342-0.231-0.651-0.27v-0.548h7.521v0.548
		c-0.394,0.1-0.651,0.227-0.776,0.382c-0.124,0.155-0.187,0.581-0.187,1.278v6.906c0,0.659,0.058,1.076,0.174,1.253
		s0.379,0.315,0.789,0.415V63.401z"/>
	<path d="M346.305,63.534c-1.627,0-2.849-0.476-3.665-1.428s-1.225-2.377-1.225-4.275c0-1.245,0.198-2.309,0.594-3.192
		c0.396-0.882,0.979-1.553,1.747-2.013c0.77-0.459,1.686-0.689,2.748-0.689c1.654,0,2.896,0.475,3.727,1.423
		c0.83,0.949,1.245,2.359,1.245,4.229c0,1.046-0.123,1.944-0.369,2.693c-0.246,0.75-0.597,1.366-1.05,1.847
		c-0.454,0.481-0.998,0.835-1.632,1.063C347.792,63.421,347.085,63.534,346.305,63.534z M344.055,57.607
		c0,1.671,0.201,2.915,0.602,3.731c0.401,0.816,1.015,1.224,1.839,1.224c0.427,0,0.789-0.115,1.088-0.344
		c0.299-0.23,0.541-0.551,0.726-0.963c0.186-0.413,0.318-0.901,0.398-1.465c0.081-0.564,0.121-1.184,0.121-1.859
		c0-1.101-0.088-2.024-0.262-2.768c-0.175-0.745-0.438-1.306-0.789-1.686c-0.351-0.379-0.801-0.568-1.349-0.568
		c-0.802,0-1.398,0.383-1.789,1.149C344.25,54.825,344.055,56.008,344.055,57.607z"/>
	<path d="M357.619,63.401h-4.466v-0.548c0.382-0.094,0.626-0.234,0.73-0.419c0.105-0.186,0.158-0.561,0.158-1.125v-7.147
		c0-0.57-0.05-0.943-0.149-1.121s-0.346-0.318-0.739-0.423v-0.548h8.028v3.138h-1.139c-0.305-0.979-0.574-1.582-0.813-1.805
		c-0.238-0.225-0.576-0.336-1.014-0.336h-1.602v8.251c0,0.576,0.059,0.958,0.174,1.146c0.117,0.188,0.393,0.318,0.83,0.39V63.401z"
		/>
	<path d="M372.395,61.318c0,0.559,0.048,0.931,0.145,1.117c0.097,0.185,0.342,0.325,0.734,0.419v0.548h-4.332v-0.548
		c0.398-0.094,0.645-0.223,0.738-0.386c0.094-0.164,0.141-0.547,0.141-1.15v-3.246c0-0.979,0.025-1.724,0.075-2.233h-0.05
		l-3.943,5.479c0,0.548,0.052,0.917,0.154,1.108c0.103,0.191,0.35,0.333,0.742,0.428v0.548h-4.357v-0.548
		c0.382-0.094,0.625-0.234,0.73-0.419c0.105-0.186,0.158-0.558,0.158-1.117v-7.155c0-0.57-0.051-0.943-0.15-1.121
		s-0.346-0.318-0.738-0.423v-0.548h4.357v0.548c-0.393,0.111-0.64,0.257-0.742,0.44s-0.154,0.553-0.154,1.112v3.652
		c0,0.692-0.019,1.237-0.058,1.635h0.05l3.926-5.487c0-0.465-0.049-0.782-0.148-0.95c-0.1-0.169-0.344-0.303-0.73-0.403v-0.548
		h4.332v0.548c-0.387,0.105-0.631,0.248-0.73,0.427c-0.1,0.18-0.148,0.555-0.148,1.125V61.318z"/>
	<path d="M384.83,61.318c0,0.559,0.048,0.931,0.145,1.117c0.097,0.185,0.342,0.325,0.734,0.419v0.548h-4.332v-0.548
		c0.398-0.094,0.645-0.223,0.738-0.386c0.094-0.164,0.141-0.547,0.141-1.15v-3.246c0-0.979,0.025-1.724,0.075-2.233h-0.05
		l-3.943,5.479c0,0.548,0.052,0.917,0.154,1.108c0.103,0.191,0.35,0.333,0.742,0.428v0.548h-4.357v-0.548
		c0.382-0.094,0.625-0.234,0.73-0.419c0.105-0.186,0.158-0.558,0.158-1.117v-7.155c0-0.57-0.051-0.943-0.15-1.121
		s-0.346-0.318-0.738-0.423v-0.548h4.357v0.548c-0.393,0.111-0.64,0.257-0.742,0.44s-0.154,0.553-0.154,1.112v3.652
		c0,0.692-0.019,1.237-0.058,1.635h0.05l3.926-5.487c0-0.465-0.049-0.782-0.148-0.95c-0.1-0.169-0.344-0.303-0.73-0.403v-0.548
		h4.332v0.548c-0.387,0.105-0.631,0.248-0.73,0.427c-0.1,0.18-0.148,0.555-0.148,1.125V61.318z M383.26,49.024
		c0,0.62-0.274,1.103-0.821,1.448c-0.549,0.346-1.281,0.519-2.2,0.519c-1.959,0-2.938-0.656-2.938-1.967v-0.506h1.693v0.432
		c0,0.83,0.421,1.245,1.262,1.245c0.481,0,0.819-0.103,1.013-0.307s0.29-0.518,0.29-0.938v-0.432h1.702V49.024z"/>
</g>
</svg>
