<?xml version="1.0" encoding="utf-8"?>
<!-- Generator: Adobe Illustrator 17.0.0, SVG Export Plug-In . SVG Version: 6.00 Build 0)  -->
<!DOCTYPE svg PUBLIC "-//W3C//DTD SVG 1.1//EN" "http://www.w3.org/Graphics/SVG/1.1/DTD/svg11.dtd">
<svg version="1.1" id="Слой_1" xmlns="http://www.w3.org/2000/svg" xmlns:xlink="http://www.w3.org/1999/xlink" x="0px" y="0px"
	 width="41px" height="41px" viewBox="0 0 41 41" enable-background="new 0 0 41 41" xml:space="preserve">
<circle fill="#005A80" cx="20.5" cy="20.5" r="20.5"/>
<path fill="none" d="M20.5,2c-5.112,0-9.73,2.069-13.081,5.419C4.069,10.77,2.001,15.388,2,20.5
	c0.001,5.112,2.069,9.73,5.419,13.081C10.77,36.931,15.388,38.999,20.5,39c5.112,0,9.73-2.069,13.081-5.419
	C36.931,30.23,38.999,25.612,39,20.5c0-5.112-2.069-9.73-5.419-13.081C30.23,4.069,25.612,2,20.5,2z M30.336,29.071l-1.265,1.265
	c-0.219,0.219-0.573,0.219-0.792,0l-4.5-4.499c-1.412,0.99-3.109,1.529-4.846,1.529c-2.256,0-4.375-0.877-5.966-2.468
	s-2.467-3.71-2.467-5.965c0-2.256,0.877-4.375,2.468-5.966s3.71-2.467,5.965-2.467c2.256,0,4.375,0.877,5.965,2.468
	c2.936,2.937,3.294,7.477,0.938,10.813l4.499,4.498C30.555,28.498,30.555,28.852,30.336,29.071z"/>
<path fill="none" d="M18.933,13.408c-1.479,0-2.867,0.574-3.909,1.616c-2.154,2.155-2.154,5.662,0,7.817
	c1.043,1.042,2.431,1.617,3.909,1.617s2.866-0.575,3.909-1.617c2.154-2.155,2.154-5.662,0-7.817
	C21.8,13.983,20.412,13.408,18.933,13.408z"/>
<path fill="#FFFFFF" d="M25.837,23.781c2.355-3.336,1.998-7.876-0.938-10.813c-1.591-1.591-3.71-2.468-5.965-2.468
	c-2.256,0-4.375,0.877-5.965,2.467c-1.591,1.591-2.468,3.71-2.468,5.966s0.877,4.375,2.467,5.965
	c1.591,1.591,3.71,2.468,5.966,2.468c1.737,0,3.434-0.539,4.846-1.529l4.5,4.499c0.219,0.219,0.573,0.219,0.792,0l1.265-1.265
	c0.219-0.219,0.219-0.573,0-0.792L25.837,23.781z M22.842,22.842c-1.043,1.042-2.431,1.617-3.909,1.617s-2.866-0.575-3.909-1.617
	c-2.154-2.155-2.154-5.662,0-7.817c1.042-1.042,2.43-1.616,3.909-1.616s2.867,0.574,3.909,1.616
	C24.996,17.179,24.996,20.687,22.842,22.842z"/>
</svg>
