<?xml version="1.0" encoding="utf-8"?>
<!-- Generator: Adobe Illustrator 17.0.0, SVG Export Plug-In . SVG Version: 6.00 Build 0)  -->
<!DOCTYPE svg PUBLIC "-//W3C//DTD SVG 1.1//EN" "http://www.w3.org/Graphics/SVG/1.1/DTD/svg11.dtd">
<svg version="1.1" id="Слой_1" xmlns="http://www.w3.org/2000/svg" xmlns:xlink="http://www.w3.org/1999/xlink" x="0px" y="0px"
	 width="73px" height="73px" viewBox="0 0 73 73" enable-background="new 0 0 73 73" xml:space="preserve">
<g opacity="0.5">
	<path fill="#FAFBFC" d="M31.224,36.506l11.485-11.485c0.636-0.637,0.636-1.672,0-2.308c-0.308-0.308-0.718-0.478-1.154-0.478
		s-0.846,0.17-1.154,0.478L27.768,35.346c-0.636,0.637-0.636,1.672,0,2.308l12.633,12.634c0.308,0.308,0.718,0.478,1.154,0.478
		s0.846-0.17,1.154-0.478c0.308-0.308,0.478-0.718,0.478-1.154s-0.169-0.845-0.478-1.154L31.224,36.506z"/>
	<path fill="#005A80" d="M36.5,0C16.341,0.001,0.001,16.341,0,36.5C0.001,56.659,16.341,72.999,36.5,73
		C56.659,72.999,72.999,56.659,73,36.5C72.999,16.341,56.659,0.001,36.5,0z M42.709,50.288c-0.308,0.308-0.718,0.478-1.154,0.478
		s-0.846-0.17-1.154-0.478L27.768,37.654c-0.636-0.636-0.636-1.671,0-2.308l12.633-12.633c0.308-0.308,0.718-0.478,1.154-0.478
		s0.846,0.17,1.154,0.478c0.636,0.636,0.636,1.671,0,2.308L31.224,36.506L42.709,47.98c0.309,0.309,0.478,0.718,0.478,1.154
		S43.017,49.98,42.709,50.288z"/>
</g>
</svg>
