<?xml version="1.0" encoding="utf-8"?>
<!-- Generator: Adobe Illustrator 17.0.0, SVG Export Plug-In . SVG Version: 6.00 Build 0)  -->
<!DOCTYPE svg PUBLIC "-//W3C//DTD SVG 1.1//EN" "http://www.w3.org/Graphics/SVG/1.1/DTD/svg11.dtd">
<svg version="1.1" id="Слой_1" xmlns="http://www.w3.org/2000/svg" xmlns:xlink="http://www.w3.org/1999/xlink" x="0px" y="0px"
	 width="73px" height="73px" viewBox="0 0 73 73" enable-background="new 0 0 73 73" xml:space="preserve">
<g opacity="0.4">
	<path fill="none" d="M12.812,12.812C6.747,18.879,3.001,27.244,3,36.5c0.001,9.256,3.747,17.621,9.812,23.688
		C18.879,66.253,27.244,69.999,36.5,70c9.256-0.001,17.621-3.747,23.688-9.812C66.253,54.121,69.999,45.756,70,36.5
		c-0.001-9.255-3.747-17.621-9.812-23.688C54.121,6.747,45.755,3.001,36.5,3C27.244,3.001,18.879,6.747,12.812,12.812z
		 M27.768,35.346l12.633-12.633c0.308-0.308,0.718-0.478,1.154-0.478s0.846,0.17,1.154,0.478c0.636,0.636,0.636,1.671,0,2.308
		L31.224,36.506L42.709,47.98c0.309,0.309,0.478,0.718,0.478,1.154s-0.17,0.846-0.478,1.154c-0.308,0.308-0.718,0.478-1.154,0.478
		s-0.846-0.17-1.154-0.478L27.768,37.654C27.132,37.018,27.132,35.982,27.768,35.346z"/>
	<path fill="#005A80" d="M40.401,22.713c0.308-0.308,0.718-0.478,1.154-0.478s0.846,0.17,1.154,0.478
		c0.636,0.636,0.636,1.671,0,2.308L31.224,36.506L42.709,47.98c0.309,0.309,0.478,0.718,0.478,1.154s-0.17,0.846-0.478,1.154
		c-0.308,0.308-0.718,0.478-1.154,0.478s-0.846-0.17-1.154-0.478L27.768,37.654c-0.636-0.636-0.636-1.671,0-2.308L40.401,22.713z"/>
	<path fill="#005A80" d="M0,36.5C0.001,56.659,16.341,72.999,36.5,73C56.659,72.999,72.999,56.659,73,36.5
		C72.999,16.341,56.659,0.001,36.5,0C16.341,0.001,0.001,16.341,0,36.5z M3,36.5c0.001-9.256,3.747-17.621,9.812-23.688
		C18.879,6.747,27.244,3.001,36.5,3c9.256,0.001,17.621,3.747,23.688,9.812C66.253,18.879,69.999,27.245,70,36.5
		c-0.001,9.256-3.747,17.621-9.812,23.688C54.121,66.253,45.755,69.999,36.5,70c-9.255-0.001-17.621-3.747-23.688-9.812
		C6.747,54.121,3.001,45.756,3,36.5z"/>
</g>
</svg>
