<?xml version="1.0" encoding="utf-8"?>
<!-- Generator: Adobe Illustrator 17.0.0, SVG Export Plug-In . SVG Version: 6.00 Build 0)  -->
<!DOCTYPE svg PUBLIC "-//W3C//DTD SVG 1.1//EN" "http://www.w3.org/Graphics/SVG/1.1/DTD/svg11.dtd">
<svg version="1.1" id="Слой_1" xmlns="http://www.w3.org/2000/svg" xmlns:xlink="http://www.w3.org/1999/xlink" x="0px" y="0px"
	 width="73px" height="73px" viewBox="0 0 73 73" enable-background="new 0 0 73 73" xml:space="preserve">
<g opacity="0.5">
	<path fill="#FFFFFF" d="M32.599,22.713c-0.308-0.308-0.718-0.478-1.154-0.478c-0.436,0-0.846,0.17-1.154,0.478
		c-0.636,0.636-0.636,1.671,0,2.308l11.485,11.485L30.291,47.979c-0.309,0.309-0.478,0.718-0.478,1.154s0.17,0.846,0.478,1.154
		s0.718,0.478,1.154,0.478c0.436,0,0.846-0.17,1.154-0.478l12.633-12.633c0.636-0.636,0.636-1.671,0-2.308L32.599,22.713z"/>
	<path fill="#005A80" d="M36.5,0C16.341,0.001,0.001,16.341,0,36.5C0.001,56.659,16.341,72.999,36.5,73
		C56.659,72.999,72.999,56.659,73,36.5C72.999,16.341,56.659,0.001,36.5,0z M45.232,37.654L32.599,50.287
		c-0.308,0.308-0.718,0.478-1.154,0.478c-0.436,0-0.846-0.17-1.154-0.478c-0.308-0.308-0.478-0.718-0.478-1.154
		s0.17-0.846,0.478-1.154l11.485-11.474L30.291,25.02c-0.636-0.636-0.636-1.671,0-2.308c0.308-0.308,0.718-0.478,1.154-0.478
		c0.436,0,0.846,0.17,1.154,0.478l12.633,12.633C45.868,35.982,45.868,37.018,45.232,37.654z"/>
</g>
</svg>
