<?xml version="1.0" encoding="utf-8"?>
<!-- Generator: Adobe Illustrator 17.0.0, SVG Export Plug-In . SVG Version: 6.00 Build 0)  -->
<!DOCTYPE svg PUBLIC "-//W3C//DTD SVG 1.1//EN" "http://www.w3.org/Graphics/SVG/1.1/DTD/svg11.dtd">
<svg version="1.1" id="Слой_1" xmlns="http://www.w3.org/2000/svg" xmlns:xlink="http://www.w3.org/1999/xlink" x="0px" y="0px"
	 width="73px" height="73px" viewBox="0 0 73 73" enable-background="new 0 0 73 73" xml:space="preserve">
<g opacity="0.4">
	<path fill="none" d="M36.5,3c-9.256,0.001-17.621,3.747-23.688,9.812C6.747,18.879,3.001,27.245,3,36.5
		c0.001,9.256,3.747,17.621,9.812,23.688C18.879,66.253,27.244,69.999,36.5,70c9.255-0.001,17.621-3.747,23.688-9.812
		C66.253,54.121,69.999,45.756,70,36.5c-0.001-9.256-3.747-17.621-9.812-23.688C54.121,6.747,45.755,3.001,36.5,3z M45.232,37.654
		L32.599,50.287c-0.308,0.308-0.718,0.478-1.154,0.478c-0.436,0-0.846-0.17-1.154-0.478c-0.308-0.308-0.478-0.718-0.478-1.154
		s0.17-0.846,0.478-1.154l11.485-11.474L30.291,25.02c-0.636-0.636-0.636-1.671,0-2.308c0.308-0.308,0.718-0.478,1.154-0.478
		c0.436,0,0.846,0.17,1.154,0.478l12.633,12.633C45.868,35.982,45.868,37.018,45.232,37.654z"/>
	<path fill="#005A80" d="M32.599,22.713c-0.308-0.308-0.718-0.478-1.154-0.478c-0.436,0-0.846,0.17-1.154,0.478
		c-0.636,0.636-0.636,1.671,0,2.308l11.485,11.485L30.291,47.979c-0.309,0.309-0.478,0.718-0.478,1.154s0.17,0.846,0.478,1.154
		s0.718,0.478,1.154,0.478c0.436,0,0.846-0.17,1.154-0.478l12.633-12.633c0.636-0.636,0.636-1.671,0-2.308L32.599,22.713z"/>
	<path fill="#005A80" d="M36.5,0C16.341,0.001,0.001,16.341,0,36.5C0.001,56.659,16.341,72.999,36.5,73
		C56.659,72.999,72.999,56.659,73,36.5C72.999,16.341,56.659,0.001,36.5,0z M60.188,60.188C54.121,66.253,45.755,69.999,36.5,70
		c-9.256-0.001-17.621-3.747-23.688-9.812C6.747,54.121,3.001,45.756,3,36.5c0.001-9.255,3.747-17.621,9.812-23.688
		C18.879,6.747,27.244,3.001,36.5,3c9.255,0.001,17.621,3.747,23.688,9.812C66.253,18.879,69.999,27.244,70,36.5
		C69.999,45.756,66.253,54.121,60.188,60.188z"/>
</g>
</svg>
